<svg xmlns="http://www.w3.org/2000/svg" width="26" height="26" viewBox="0 0 26 26">
  <g id="Grupo_2114" data-name="Grupo 2114" transform="translate(-1215 -55)">
    <circle id="Elipse_63" data-name="Elipse 63" cx="13" cy="13" r="13" transform="translate(1215 55)" fill="#edcd1f"/>
    <g id="usuario" transform="translate(1215 55)">
      <g id="Grupo_2103" data-name="Grupo 2103" transform="translate(0 0)">
        <path id="Trazado_5844" data-name="Trazado 5844" d="M13,0A12.993,12.993,0,0,0,2.979,21.271c0,.007.005.015.01.021A13,13,0,0,0,7.9,24.955l.065.028c.152.064.306.123.46.182l.183.068q.2.071.4.136c.086.028.172.055.26.081q.179.053.359.1c.106.029.212.055.319.081s.216.052.325.075.244.049.367.072c.1.018.2.037.3.053.137.022.274.039.412.057.089.011.177.024.267.034.156.016.313.028.471.039.073.005.146.013.22.017q.345.019.7.02c.234,0,.467-.007.7-.019.074,0,.146-.012.22-.017.158-.011.315-.023.471-.039.089-.01.178-.023.266-.034.138-.018.275-.035.412-.057.1-.016.2-.035.3-.053.123-.023.245-.046.367-.072s.217-.049.325-.075.213-.052.319-.081.24-.067.359-.1c.087-.026.173-.053.26-.081q.2-.065.4-.136l.183-.068c.155-.058.308-.118.46-.182l.065-.028a13,13,0,0,0,4.909-3.663c.005-.006.006-.015.01-.021A12.994,12.994,0,0,0,13,0Zm5.268,23.929-.019.01c-.155.075-.312.145-.471.213l-.107.046q-.208.087-.42.166l-.177.065c-.125.045-.251.088-.378.128-.079.025-.158.049-.237.072-.113.034-.226.066-.34.1-.1.026-.193.049-.29.072s-.2.049-.306.071-.225.044-.338.065c-.091.017-.182.035-.275.049-.127.02-.255.036-.383.052-.081.01-.162.023-.244.031-.146.016-.293.026-.44.036-.065,0-.13.012-.2.015q-.322.017-.645.017t-.645-.017c-.066,0-.131-.01-.2-.015-.147-.01-.294-.02-.44-.036-.082-.009-.163-.021-.244-.031-.128-.016-.256-.032-.383-.052-.092-.015-.183-.033-.275-.049-.113-.02-.226-.041-.338-.065s-.2-.046-.306-.071-.194-.046-.29-.072c-.114-.03-.227-.063-.34-.1-.079-.023-.159-.047-.237-.072q-.19-.061-.378-.128l-.177-.065q-.212-.079-.42-.166l-.107-.045c-.159-.068-.316-.139-.471-.213l-.019-.01A12.192,12.192,0,0,1,3.8,20.9a9.564,9.564,0,0,1,6.259-6.56c.06.037.123.07.185.1.036.02.072.042.109.062.129.068.26.133.394.19.1.045.209.083.315.122l.062.023a5.53,5.53,0,0,0,3.748,0l.062-.023c.106-.039.212-.077.315-.122.134-.058.265-.122.394-.19l.109-.062c.062-.035.125-.068.186-.1A9.567,9.567,0,0,1,22.2,20.9,12.2,12.2,0,0,1,18.268,23.929ZM8.233,9.533a4.767,4.767,0,1,1,7.36,3.994,4.591,4.591,0,0,1-.531.3L15,13.855a4.876,4.876,0,0,1-4,0l-.065-.031a4.555,4.555,0,0,1-.531-.3A4.764,4.764,0,0,1,8.233,9.533Zm14.616,10.54a10.441,10.441,0,0,0-6.087-6.359,5.634,5.634,0,1,0-7.524,0,10.442,10.442,0,0,0-6.087,6.359A12.13,12.13,0,1,1,25.133,13,12.065,12.065,0,0,1,22.849,20.073Z" transform="translate(0 0)" fill="#058f38"/>
      </g>
    </g>
  </g>
</svg>
