<?xml version="1.0" encoding="utf-8"?>
<!-- Generator: Adobe Illustrator 24.2.3, SVG Export Plug-In . SVG Version: 6.00 Build 0)  -->
<svg version="1.1" id="Capa_1" xmlns="http://www.w3.org/2000/svg" xmlns:xlink="http://www.w3.org/1999/xlink" x="0px" y="0px"
	 viewBox="0 0 841.89 595.28" style="enable-background:new 0 0 841.89 595.28;" xml:space="preserve">
<style type="text/css">
	.st0{enable-background:new    ;}
	.st1{fill:#4E3615;}
</style>
<g>
	<g>
		<g>
			<g class="st0">
				<path class="st1" d="M181.46,424.13c5.17,4.52,7.76,11.3,7.76,20.34c0,13.2-4.73,22.51-14.19,27.93
					c-9.46,5.41-22.69,8.12-39.7,8.12H95.54V356.85h34.98c17.37,0,30.63,2.47,39.79,7.41c9.16,4.94,13.74,13,13.74,24.18
					c0,7.26-2.17,13.12-6.51,17.58c-4.34,4.46-9.73,7.47-16.15,9.01C169.59,416.57,176.28,419.61,181.46,424.13z M124.8,377.55
					v28.73h10.89c12.37,0,18.56-5,18.56-14.99c0-5-1.67-8.53-5-10.62c-3.33-2.08-8.63-3.12-15.88-3.12H124.8z M153.09,455.8
					c3.98-2.32,5.98-6.63,5.98-12.94c0-11.42-7.14-17.13-21.41-17.13H124.8v33.55h10.71C143.24,459.28,149.1,458.12,153.09,455.8z"
					/>
				<path class="st1" d="M231.07,340.34c3.15,3.03,4.73,6.87,4.73,11.51c0,4.64-1.58,8.48-4.73,11.51
					c-3.15,3.03-7.17,4.55-12.05,4.55c-4.88,0-8.86-1.52-11.96-4.55c-3.1-3.03-4.64-6.87-4.64-11.51c0-4.64,1.54-8.48,4.64-11.51
					c3.09-3.03,7.08-4.55,11.96-4.55C223.9,335.79,227.91,337.31,231.07,340.34z M233.3,385.76v94.76H205.1v-94.76H233.3z"/>
				<path class="st1" d="M337.51,441.43H278.8c0.95,7.97,3.21,13.56,6.78,16.77c3.57,3.21,8.5,4.82,14.81,4.82
					c3.81,0,7.49-0.68,11.06-2.05c3.57-1.37,7.43-3.48,11.6-6.33l11.6,15.7c-11.06,8.81-23.38,13.2-36.94,13.2
					c-15.35,0-27.12-4.52-35.33-13.56c-8.21-9.04-12.31-21.17-12.31-36.4c0-9.64,1.72-18.29,5.18-25.96
					c3.45-7.67,8.5-13.74,15.17-18.2c6.66-4.46,14.63-6.69,23.91-6.69c13.68,0,24.39,4.28,32.12,12.85
					c7.73,8.57,11.6,20.46,11.6,35.69C338.04,435.19,337.86,438.58,337.51,441.43z M310.38,423.23
					c-0.24-14.51-5.35-21.77-15.35-21.77c-4.88,0-8.65,1.78-11.33,5.35c-2.68,3.57-4.31,9.46-4.91,17.67h31.58V423.23z"/>
				<path class="st1" d="M428.69,390.22c4.64,5,6.96,12.02,6.96,21.06v69.24h-28.19V416.1c0-4.76-0.74-8.06-2.23-9.9
					c-1.49-1.84-3.72-2.77-6.69-2.77c-5.71,0-11.18,4.1-16.42,12.31v64.78h-28.19v-94.76h24.63l1.96,11.24
					c4.04-4.76,8.41-8.33,13.12-10.71c4.7-2.38,9.96-3.57,15.79-3.57C417.63,382.73,424.05,385.22,428.69,390.22z"/>
				<path class="st1" d="M622.48,480.51h-28.73l-2.14-48.36c-0.6-11.54-0.89-21.83-0.89-30.87c0-6.9,0.18-13.44,0.54-19.63
					l-19.09,85.83H544.5l-20.34-85.83c0.71,10.35,1.07,20.11,1.07,29.26c0,6.9-0.18,14.1-0.54,21.59l-2.14,48H494l9.28-123.66h36.94
					l18.56,83.87l17.31-83.87h37.12L622.48,480.51z"/>
				<path class="st1" d="M666.38,331.51l11.06,21.06l-42.11,16.95l-7.85-14.45L666.38,331.51z M667.63,385.76v94.76h-28.19v-94.76
					H667.63z"/>
				<path class="st1" d="M764.88,396.02c8.21,8.86,12.31,21.27,12.31,37.21c0,10.11-1.87,18.95-5.62,26.5
					c-3.75,7.56-9.1,13.41-16.06,17.58c-6.96,4.16-15.2,6.25-24.71,6.25c-14.4,0-25.73-4.43-33.99-13.29
					c-8.27-8.86-12.4-21.26-12.4-37.21c0-10.11,1.87-18.94,5.62-26.5c3.75-7.55,9.1-13.41,16.06-17.58
					c6.96-4.16,15.2-6.25,24.71-6.25C745.31,382.73,756.67,387.16,764.88,396.02z M717.95,410.65c-2.85,4.82-4.28,12.28-4.28,22.4
					c0,10.35,1.4,17.91,4.19,22.66c2.79,4.76,7.11,7.14,12.94,7.14c5.71,0,9.99-2.41,12.85-7.23c2.85-4.82,4.28-12.28,4.28-22.4
					c0-10.35-1.4-17.9-4.19-22.66c-2.8-4.76-7.11-7.14-12.94-7.14C725.09,403.43,720.81,405.83,717.95,410.65z"/>
			</g>
			<g>
				<g class="st0">
					<path class="st1" d="M57.05,507.72v32.42h-4.47v-32.42H57.05z"/>
					<path class="st1" d="M89.19,540.14h-5.98l-13.17-27.53c0.19,2.16,0.34,4.16,0.45,6c0.11,1.84,0.16,4.05,0.16,6.66v14.87h-4.19
						v-32.42h5.83l13.32,27.57c-0.09-0.82-0.22-2.24-0.38-4.28c-0.16-2.04-0.24-3.91-0.24-5.6v-17.69h4.19V540.14z"/>
					<path class="st1" d="M112.15,508.08c1.54,0.61,3.03,1.56,4.47,2.85l-2.45,2.73c-1.22-0.97-2.42-1.69-3.6-2.14
						c-1.18-0.45-2.44-0.68-3.79-0.68c-1.69,0-3.09,0.39-4.19,1.18c-1.1,0.78-1.65,1.93-1.65,3.43c0,0.94,0.19,1.73,0.56,2.38
						c0.38,0.64,1.07,1.23,2.09,1.76c1.02,0.53,2.5,1.1,4.45,1.69c2.04,0.63,3.73,1.3,5.08,2.02c1.35,0.72,2.44,1.72,3.27,2.99
						c0.83,1.27,1.25,2.88,1.25,4.82c0,1.88-0.46,3.55-1.39,4.99c-0.93,1.44-2.26,2.57-4,3.39c-1.74,0.82-3.8,1.22-6.19,1.22
						c-4.49,0-8.16-1.4-11.01-4.19l2.45-2.73c1.32,1.07,2.65,1.88,4,2.42c1.35,0.55,2.85,0.82,4.52,0.82c2.01,0,3.67-0.49,4.99-1.48
						c1.32-0.99,1.98-2.42,1.98-4.31c0-1.07-0.2-1.95-0.61-2.66c-0.41-0.71-1.11-1.34-2.09-1.91c-0.99-0.56-2.42-1.13-4.31-1.69
						c-3.33-1-5.76-2.21-7.29-3.62c-1.54-1.41-2.31-3.32-2.31-5.74c0-1.63,0.43-3.09,1.29-4.38c0.86-1.29,2.07-2.29,3.62-3.01
						c1.55-0.72,3.32-1.08,5.29-1.08C108.76,507.16,110.61,507.46,112.15,508.08z"/>
					<path class="st1" d="M142.07,510.24c2.2,1.68,3.29,4.18,3.29,7.51c0,3.55-1.15,6.18-3.43,7.91c-2.29,1.73-5.33,2.59-9.13,2.59
						h-4.09v11.9h-4.47v-32.42h8.52C136.77,507.72,139.88,508.56,142.07,510.24z M138.57,523.2c1.36-1,2.05-2.81,2.05-5.41
						c0-2.32-0.68-4-2.05-5.03c-1.36-1.04-3.32-1.55-5.86-1.55h-4v13.5h3.91C135.22,524.71,137.2,524.21,138.57,523.2z"/>
				</g>
				<g class="st0">
					<path class="st1" d="M169.14,507.72l-0.52,3.58h-12.56v10.59h10.92v3.58h-10.92v11.1h13.46v3.58h-17.93v-32.42H169.14z"/>
				</g>
				<g class="st0">
					<path class="st1" d="M192.45,507.91c1.33,0.5,2.69,1.32,4.07,2.45l-2.45,2.87c-1.98-1.6-4.06-2.4-6.26-2.4
						c-2.7,0-4.87,1.04-6.52,3.11c-1.65,2.07-2.47,5.4-2.47,9.98c0,4.45,0.82,7.74,2.45,9.86c1.63,2.12,3.8,3.18,6.49,3.18
						c1.38,0,2.59-0.24,3.62-0.71c1.04-0.47,2.13-1.13,3.29-1.98l2.21,2.82c-1,1.04-2.29,1.9-3.86,2.59
						c-1.57,0.69-3.37,1.04-5.41,1.04c-2.63,0-4.98-0.65-7.03-1.95c-2.06-1.3-3.65-3.22-4.8-5.74c-1.15-2.52-1.72-5.56-1.72-9.11
						c0-3.54,0.6-6.58,1.79-9.1c1.19-2.52,2.81-4.43,4.85-5.72c2.04-1.29,4.31-1.93,6.82-1.93
						C189.48,507.16,191.12,507.41,192.45,507.91z"/>
				</g>
				<g class="st0">
					<path class="st1" d="M217.86,507.91c1.33,0.5,2.69,1.32,4.07,2.45l-2.45,2.87c-1.98-1.6-4.06-2.4-6.26-2.4
						c-2.7,0-4.87,1.04-6.52,3.11c-1.65,2.07-2.47,5.4-2.47,9.98c0,4.45,0.82,7.74,2.45,9.86c1.63,2.12,3.8,3.18,6.49,3.18
						c1.38,0,2.59-0.24,3.62-0.71c1.04-0.47,2.13-1.13,3.29-1.98l2.21,2.82c-1,1.04-2.29,1.9-3.86,2.59
						c-1.57,0.69-3.37,1.04-5.41,1.04c-2.63,0-4.98-0.65-7.03-1.95c-2.06-1.3-3.65-3.22-4.8-5.74c-1.15-2.52-1.72-5.56-1.72-9.11
						c0-3.54,0.6-6.58,1.79-9.1c1.19-2.52,2.81-4.43,4.85-5.72c2.04-1.29,4.31-1.93,6.82-1.93
						C214.89,507.16,216.52,507.41,217.86,507.91z"/>
					<path class="st1" d="M232.42,507.72v32.42h-4.47v-32.42H232.42z"/>
					<path class="st1" d="M260.58,509.11c2.05,1.3,3.65,3.21,4.8,5.72c1.14,2.51,1.72,5.55,1.72,9.13c0,3.51-0.57,6.52-1.72,9.03
						c-1.15,2.51-2.74,4.42-4.8,5.74c-2.05,1.32-4.45,1.98-7.18,1.98c-2.73,0-5.12-0.64-7.18-1.93c-2.06-1.29-3.65-3.18-4.8-5.69
						c-1.15-2.51-1.72-5.54-1.72-9.08c0-3.48,0.57-6.49,1.72-9.03c1.14-2.54,2.75-4.48,4.82-5.81c2.07-1.33,4.45-2,7.15-2
						C256.14,507.16,258.53,507.81,260.58,509.11z M246.82,514.03c-1.57,2.13-2.35,5.46-2.35,9.98c0,4.49,0.79,7.78,2.38,9.88
						c1.58,2.1,3.77,3.15,6.56,3.15c5.96,0,8.94-4.36,8.94-13.08c0-8.75-2.98-13.13-8.94-13.13
						C250.58,510.83,248.39,511.9,246.82,514.03z M257.17,497.28l1.88,3.62l-10.16,3.72l-1.13-2.31L257.17,497.28z"/>
					<path class="st1" d="M297.12,540.14h-5.98l-13.17-27.53c0.19,2.16,0.34,4.16,0.45,6c0.11,1.84,0.16,4.05,0.16,6.66v14.87h-4.19
						v-32.42h5.83l13.32,27.57c-0.09-0.82-0.22-2.24-0.38-4.28c-0.16-2.04-0.24-3.91-0.24-5.6v-17.69h4.19V540.14z"/>
					<path class="st1" d="M309.78,535.11c0.63,0.63,0.94,1.4,0.94,2.31c0,0.97-0.28,2.09-0.85,3.34l-3.15,7.2h-3.11l1.88-7.81
						c-0.41-0.31-0.73-0.71-0.96-1.18c-0.24-0.47-0.35-0.99-0.35-1.55c0-0.91,0.31-1.68,0.94-2.31c0.63-0.63,1.4-0.94,2.31-0.94
						C308.36,534.17,309.15,534.48,309.78,535.11z"/>
					<path class="st1" d="M351.46,507.72l-10.35,32.42h-4.8l-10.45-32.42h4.8l8.14,27.57l8.14-27.57H351.46z"/>
					<path class="st1" d="M360.92,507.72v32.42h-4.47v-32.42H360.92z"/>
					<path class="st1" d="M387.58,508.03c1.49,0.58,2.97,1.48,4.45,2.71l-2.63,2.73c-1.16-0.94-2.27-1.62-3.34-2.02
						c-1.07-0.41-2.32-0.61-3.76-0.61c-1.66,0-3.19,0.45-4.59,1.34c-1.4,0.89-2.53,2.32-3.41,4.28c-0.88,1.96-1.32,4.45-1.32,7.46
						c0,4.55,0.74,7.87,2.24,9.98c1.49,2.1,3.69,3.15,6.61,3.15c2.38,0,4.44-0.49,6.16-1.46v-9.79h-5.74l-0.52-3.62h10.68v15.67
						c-3.36,1.91-6.89,2.87-10.59,2.87c-4.27,0-7.6-1.43-10-4.28c-2.4-2.85-3.6-7.03-3.6-12.52c0-3.51,0.63-6.53,1.91-9.06
						c1.27-2.52,2.98-4.44,5.13-5.74c2.15-1.3,4.49-1.95,7.03-1.95C384.32,507.16,386.09,507.45,387.58,508.03z"/>
					<path class="st1" d="M404.49,507.72v32.42h-4.47v-32.42H404.49z"/>
					<path class="st1" d="M418.38,507.72v28.51h13.32l-0.52,3.91H413.9v-32.42H418.38z"/>
					<path class="st1" d="M454.61,540.14l-2.45-8.14h-12.28l-2.45,8.14h-4.52l10.4-32.42h5.65l10.35,32.42H454.61z M440.96,528.38
						h10.12l-5.03-16.94L440.96,528.38z"/>
					<path class="st1" d="M487.03,540.14h-5.98l-13.17-27.53c0.19,2.16,0.34,4.16,0.45,6c0.11,1.84,0.16,4.05,0.16,6.66v14.87h-4.19
						v-32.42h5.83l13.32,27.57c-0.09-0.82-0.22-2.24-0.38-4.28c-0.16-2.04-0.24-3.91-0.24-5.6v-17.69h4.19V540.14z"/>
					<path class="st1" d="M512.69,507.91c1.33,0.5,2.69,1.32,4.07,2.45l-2.45,2.87c-1.98-1.6-4.06-2.4-6.26-2.4
						c-2.7,0-4.87,1.04-6.52,3.11c-1.65,2.07-2.47,5.4-2.47,9.98c0,4.45,0.82,7.74,2.45,9.86c1.63,2.12,3.8,3.18,6.49,3.18
						c1.38,0,2.59-0.24,3.62-0.71c1.04-0.47,2.13-1.13,3.29-1.98l2.21,2.82c-1,1.04-2.29,1.9-3.86,2.59
						c-1.57,0.69-3.37,1.04-5.41,1.04c-2.63,0-4.98-0.65-7.03-1.95c-2.06-1.3-3.65-3.22-4.8-5.74c-1.15-2.52-1.72-5.56-1.72-9.11
						c0-3.54,0.6-6.58,1.79-9.1c1.19-2.52,2.81-4.43,4.85-5.72c2.04-1.29,4.31-1.93,6.82-1.93
						C509.72,507.16,511.36,507.41,512.69,507.91z"/>
					<path class="st1" d="M527.26,507.72v32.42h-4.47v-32.42H527.26z"/>
					<path class="st1" d="M553.94,540.14l-2.45-8.14h-12.28l-2.45,8.14h-4.52l10.4-32.42h5.65l10.35,32.42H553.94z M540.29,528.38
						h10.12l-5.03-16.94L540.29,528.38z"/>
					<path class="st1" d="M597.04,507.72l-10.45,19.95v12.47h-4.52v-12.42l-10.45-20h4.94l7.9,16.05l7.91-16.05H597.04z"/>
				</g>
				<g class="st0">
					<path class="st1" d="M630.72,507.91c1.33,0.5,2.69,1.32,4.07,2.45l-2.45,2.87c-1.98-1.6-4.06-2.4-6.26-2.4
						c-2.7,0-4.87,1.04-6.52,3.11c-1.65,2.07-2.47,5.4-2.47,9.98c0,4.45,0.82,7.74,2.45,9.86c1.63,2.12,3.8,3.18,6.49,3.18
						c1.38,0,2.59-0.24,3.62-0.71c1.04-0.47,2.13-1.13,3.29-1.98l2.21,2.82c-1,1.04-2.29,1.9-3.86,2.59
						c-1.57,0.69-3.37,1.04-5.41,1.04c-2.63,0-4.98-0.65-7.03-1.95c-2.06-1.3-3.65-3.22-4.8-5.74c-1.15-2.52-1.72-5.56-1.72-9.11
						c0-3.54,0.6-6.58,1.79-9.1c1.19-2.52,2.81-4.43,4.85-5.72c2.04-1.29,4.31-1.93,6.82-1.93
						C627.75,507.16,629.39,507.41,630.72,507.91z"/>
				</g>
				<g class="st0">
					<path class="st1" d="M658.62,509.11c2.05,1.3,3.65,3.21,4.8,5.72c1.14,2.51,1.72,5.55,1.72,9.13c0,3.51-0.57,6.52-1.72,9.03
						c-1.15,2.51-2.74,4.42-4.8,5.74c-2.05,1.32-4.45,1.98-7.18,1.98s-5.12-0.64-7.18-1.93c-2.06-1.29-3.65-3.18-4.8-5.69
						c-1.15-2.51-1.72-5.54-1.72-9.08c0-3.48,0.57-6.49,1.72-9.03c1.14-2.54,2.75-4.48,4.82-5.81c2.07-1.33,4.45-2,7.15-2
						C654.18,507.16,656.57,507.81,658.62,509.11z M644.86,514.03c-1.57,2.13-2.35,5.46-2.35,9.98c0,4.49,0.79,7.78,2.38,9.88
						c1.58,2.1,3.77,3.15,6.56,3.15c5.96,0,8.94-4.36,8.94-13.08c0-8.75-2.98-13.13-8.94-13.13
						C648.63,510.83,646.43,511.9,644.86,514.03z"/>
					<path class="st1" d="M695.16,540.14h-5.98l-13.17-27.53c0.19,2.16,0.34,4.16,0.45,6c0.11,1.84,0.16,4.05,0.16,6.66v14.87h-4.19
						v-32.42h5.83l13.32,27.57c-0.09-0.82-0.22-2.24-0.38-4.28c-0.16-2.04-0.24-3.91-0.24-5.6v-17.69h4.19V540.14z"/>
					<path class="st1" d="M723.72,507.72l-0.47,3.81h-8.99v28.61h-4.47v-28.61h-9.22v-3.81H723.72z"/>
				</g>
				<g class="st0">
					<path class="st1" d="M738.4,526.4h-5.03v13.74h-4.47v-32.42h8.52c4.05,0,7.11,0.77,9.2,2.31c2.09,1.54,3.13,3.83,3.13,6.87
						c0,2.26-0.58,4.09-1.74,5.51c-1.16,1.41-2.92,2.48-5.27,3.2l8.75,14.54h-5.32L738.4,526.4z M737.89,522.97
						c2.35,0,4.12-0.48,5.32-1.44c1.19-0.96,1.79-2.5,1.79-4.63c0-2.01-0.6-3.46-1.81-4.35c-1.21-0.89-3.15-1.34-5.81-1.34h-4v11.76
						H737.89z"/>
				</g>
				<g class="st0">
					<path class="st1" d="M775.69,509.11c2.05,1.3,3.65,3.21,4.8,5.72c1.14,2.51,1.72,5.55,1.72,9.13c0,3.51-0.57,6.52-1.72,9.03
						c-1.15,2.51-2.74,4.42-4.8,5.74c-2.05,1.32-4.45,1.98-7.18,1.98c-2.73,0-5.12-0.64-7.18-1.93c-2.06-1.29-3.65-3.18-4.8-5.69
						c-1.15-2.51-1.72-5.54-1.72-9.08c0-3.48,0.57-6.49,1.72-9.03c1.14-2.54,2.75-4.48,4.82-5.81c2.07-1.33,4.45-2,7.15-2
						C771.25,507.16,773.64,507.81,775.69,509.11z M761.93,514.03c-1.57,2.13-2.35,5.46-2.35,9.98c0,4.49,0.79,7.78,2.38,9.88
						c1.58,2.1,3.77,3.15,6.56,3.15c5.96,0,8.94-4.36,8.94-13.08c0-8.75-2.98-13.13-8.94-13.13
						C765.7,510.83,763.5,511.9,761.93,514.03z"/>
					<path class="st1" d="M793.97,507.72v28.51h13.32l-0.52,3.91H789.5v-32.42H793.97z"/>
				</g>
				<g class="st0">
					<path class="st1" d="M173.44,589.12l-2.45-8.14h-12.28l-2.45,8.14h-4.52l10.4-32.42h5.65l10.35,32.42H173.44z M159.79,577.36
						h10.12l-5.03-16.94L159.79,577.36z"/>
					<path class="st1" d="M187.6,556.7v28.51h13.32l-0.52,3.91h-17.27V556.7H187.6z"/>
				</g>
				<g class="st0">
					<path class="st1" d="M236.87,559.22c2.2,1.68,3.29,4.18,3.29,7.51c0,3.55-1.15,6.18-3.43,7.91c-2.29,1.73-5.33,2.59-9.13,2.59
						h-4.09v11.9h-4.47V556.7h8.52C231.57,556.7,234.67,557.54,236.87,559.22z M233.36,572.18c1.36-1,2.05-2.81,2.05-5.41
						c0-2.32-0.68-4-2.05-5.03c-1.36-1.04-3.32-1.55-5.86-1.55h-4v13.5h3.91C230.01,573.69,232,573.18,233.36,572.18z"/>
				</g>
				<g class="st0">
					<path class="st1" d="M260.82,589.12l-2.45-8.14h-12.28l-2.45,8.14h-4.52l10.4-32.42h5.65l10.35,32.42H260.82z M247.17,577.36
						h10.12l-5.03-16.94L247.17,577.36z"/>
				</g>
				<g class="st0">
					<path class="st1" d="M287.31,556.7l-0.47,3.81h-8.99v28.61h-4.47v-28.61h-9.22v-3.81H287.31z"/>
					<path class="st1" d="M301.99,575.38h-5.03v13.74h-4.47V556.7h8.52c4.05,0,7.11,0.77,9.2,2.31c2.09,1.54,3.13,3.83,3.13,6.87
						c0,2.26-0.58,4.09-1.74,5.51c-1.16,1.41-2.92,2.48-5.27,3.2l8.75,14.54h-5.32L301.99,575.38z M301.48,571.95
						c2.35,0,4.12-0.48,5.32-1.44c1.19-0.96,1.79-2.5,1.79-4.63c0-2.01-0.6-3.46-1.81-4.35c-1.21-0.89-3.15-1.34-5.81-1.34h-4v11.76
						H301.48z"/>
					<path class="st1" d="M325.43,556.7v32.42h-4.47V556.7H325.43z"/>
				</g>
				<g class="st0">
					<path class="st1" d="M363.82,589.12h-4.33l-1.13-14.63c-0.47-5.74-0.74-10.15-0.8-13.22l-7.01,24.19h-4.19l-7.39-24.23
						c0,3.92-0.2,8.45-0.61,13.6l-1.08,14.3h-4.23l2.68-32.42h6.02l6.82,23.57l6.49-23.57h6.07L363.82,589.12z"/>
				</g>
				<g class="st0">
					<path class="st1" d="M389.73,558.09c2.05,1.3,3.65,3.21,4.8,5.72c1.14,2.51,1.72,5.55,1.72,9.13c0,3.51-0.57,6.52-1.72,9.03
						c-1.15,2.51-2.74,4.42-4.8,5.74c-2.05,1.32-4.45,1.98-7.18,1.98c-2.73,0-5.12-0.64-7.18-1.93c-2.06-1.29-3.65-3.18-4.8-5.69
						c-1.15-2.51-1.72-5.54-1.72-9.08c0-3.48,0.57-6.49,1.72-9.03c1.14-2.54,2.75-4.48,4.82-5.81c2.07-1.33,4.45-2,7.15-2
						C385.28,556.14,387.67,556.79,389.73,558.09z M375.97,563c-1.57,2.13-2.35,5.46-2.35,9.98c0,4.49,0.79,7.78,2.38,9.88
						c1.58,2.1,3.77,3.15,6.56,3.15c5.96,0,8.94-4.36,8.94-13.08c0-8.75-2.98-13.13-8.94-13.13
						C379.73,559.81,377.53,560.87,375.97,563z"/>
					<path class="st1" d="M426.26,589.12h-5.98l-13.17-27.53c0.19,2.16,0.34,4.16,0.45,6c0.11,1.84,0.16,4.05,0.16,6.66v14.87h-4.19
						V556.7h5.83l13.32,27.57c-0.09-0.82-0.22-2.24-0.38-4.28c-0.16-2.04-0.24-3.91-0.24-5.6V556.7h4.19V589.12z"/>
					<path class="st1" d="M440.15,556.7v32.42h-4.47V556.7H440.15z"/>
					<path class="st1" d="M468.31,558.09c2.05,1.3,3.65,3.21,4.8,5.72c1.14,2.51,1.72,5.55,1.72,9.13c0,3.51-0.57,6.52-1.72,9.03
						c-1.15,2.51-2.74,4.42-4.8,5.74c-2.05,1.32-4.45,1.98-7.18,1.98c-2.73,0-5.12-0.64-7.18-1.93c-2.06-1.29-3.65-3.18-4.8-5.69
						c-1.15-2.51-1.72-5.54-1.72-9.08c0-3.48,0.57-6.49,1.72-9.03c1.14-2.54,2.75-4.48,4.82-5.81c2.07-1.33,4.45-2,7.15-2
						C463.86,556.14,466.25,556.79,468.31,558.09z M454.54,563c-1.57,2.13-2.35,5.46-2.35,9.98c0,4.49,0.79,7.78,2.38,9.88
						c1.58,2.1,3.77,3.15,6.56,3.15c5.96,0,8.94-4.36,8.94-13.08c0-8.75-2.98-13.13-8.94-13.13
						C458.31,559.81,456.11,560.87,454.54,563z"/>
					<path class="st1" d="M523.57,589.12h-4.33l-1.13-14.63c-0.47-5.74-0.74-10.15-0.8-13.22l-7.01,24.19h-4.19l-7.39-24.23
						c0,3.92-0.2,8.45-0.61,13.6l-1.08,14.3h-4.23l2.68-32.42h6.02l6.82,23.57l6.49-23.57h6.07L523.57,589.12z"/>
				</g>
				<g class="st0">
					<path class="st1" d="M548.47,589.12l-2.45-8.14h-12.28l-2.45,8.14h-4.52l10.4-32.42h5.65l10.35,32.42H548.47z M534.82,577.36
						h10.12l-5.03-16.94L534.82,577.36z"/>
				</g>
				<g class="st0">
					<path class="st1" d="M574.96,556.7l-0.47,3.81h-8.99v28.61h-4.47v-28.61h-9.22v-3.81H574.96z"/>
					<path class="st1" d="M597.69,556.7l-0.52,3.58h-12.56v10.59h10.92v3.58h-10.92v11.1h13.46v3.58h-17.93V556.7H597.69z"/>
					<path class="st1" d="M614.81,575.38h-5.03v13.74h-4.47V556.7h8.52c4.05,0,7.11,0.77,9.2,2.31c2.09,1.54,3.13,3.83,3.13,6.87
						c0,2.26-0.58,4.09-1.74,5.51c-1.16,1.41-2.92,2.48-5.27,3.2l8.75,14.54h-5.32L614.81,575.38z M614.3,571.95
						c2.35,0,4.12-0.48,5.32-1.44c1.19-0.96,1.79-2.5,1.79-4.63c0-2.01-0.6-3.46-1.81-4.35c-1.21-0.89-3.15-1.34-5.81-1.34h-4v11.76
						H614.3z"/>
					<path class="st1" d="M638.25,556.7v32.42h-4.47V556.7H638.25z"/>
					<path class="st1" d="M664.93,589.12l-2.45-8.14H650.2l-2.45,8.14h-4.52l10.4-32.42h5.65l10.35,32.42H664.93z M651.28,577.36
						h10.12l-5.03-16.94L651.28,577.36z"/>
					<path class="st1" d="M679.09,556.7v28.51h13.32l-0.52,3.91h-17.27V556.7H679.09z"/>
					<path class="st1" d="M701.3,584.09c0.63,0.63,0.94,1.4,0.94,2.31c0,0.91-0.31,1.69-0.94,2.33c-0.63,0.64-1.41,0.96-2.35,0.96
						c-0.91,0-1.68-0.32-2.31-0.96c-0.63-0.64-0.94-1.42-0.94-2.33c0-0.91,0.31-1.68,0.94-2.31c0.63-0.63,1.4-0.94,2.31-0.94
						C699.89,583.14,700.67,583.46,701.3,584.09z"/>
				</g>
			</g>
		</g>
		<g>
			<path class="st1" d="M571.34,269.17c-11.47,1.89-22.06,1.5-29.44-0.64c2.08,5.16,3.8,10.46,5.16,15.86h211.8
				c-3.01-17.59-7.44-34.92-13.23-51.8c-7.75,5.98-23.6,11.79-42.41,14.89c-27.55,4.53-50.99,1.53-52.34-6.7
				c-1.35-8.23,19.88-18.58,47.44-23.11c16.75-2.76,31.95-2.71,41.62-0.4c-17.16-42.95-42.98-81.91-75.85-114.45
				c5.22,6.51-3.73,22.37-20,35.42c-16.27,13.05-33.69,18.37-38.91,11.87s3.73-22.37,20-35.43c16.2-13.01,33.53-18.32,38.84-11.94
				c-29.88-29.62-65.04-53.37-103.66-70.04c0.59,7.82-1.82,18.98-7.09,30.45c-8.72,18.95-21.94,31.48-29.52,27.99
				c-7.58-3.49-6.65-21.68,2.07-40.63c5.04-10.94,11.57-19.72,17.65-24.53C509.02,13.32,472.72,6.43,436.02,5.59
				c3.04,7.07,4.94,17.12,4.94,28.32c0,21.39-6.94,38.73-15.5,38.73s-15.49-17.34-15.49-38.73c0-11.1,1.87-21.07,4.86-28.14
				c-34.41,1.31-68.42,7.95-100.8,19.67c5.39,5.06,10.93,12.98,15.33,22.54c8.72,18.95,9.65,37.14,2.07,40.63
				c-7.58,3.49-20.8-9.04-29.52-27.99c-4.65-10.09-7.06-19.94-7.18-27.52c-36.26,15.79-69.45,37.84-98.06,65.15
				c7.22-2.79,22.01,2.68,35.99,13.9c16.27,13.06,25.22,28.92,19.99,35.43c-5.23,6.51-22.64,1.2-38.91-11.86
				c-14.99-12.04-23.76-26.45-20.93-33.72c-32.49,31.94-58.16,70.14-75.47,112.29c9.7-1.84,23.93-1.69,39.52,0.87
				c27.55,4.53,48.79,14.88,47.44,23.13c-1.35,8.25-24.79,11.24-52.34,6.7c-17.74-2.92-32.81-8.24-40.97-13.87
				c-6.05,17.35-10.65,35.16-13.76,53.27h211.8c1.63-6.54,3.81-12.94,6.51-19.12c-7.37,2.79-18.99,3.48-31.69,1.39
				c-20.59-3.38-36.18-12.8-34.82-21.04c1.36-8.23,19.15-12.17,39.72-8.77c16.07,2.64,29.06,8.96,33.35,15.53
				c5.79-9.9,12.93-18.94,21.22-26.87c-7.43,2.23-21.77-3.24-35.32-14.12c-16.27-13.06-25.22-28.92-19.99-35.43
				s22.65-1.2,38.91,11.87c14.83,11.9,23.53,26.11,21.02,33.46c10.5-9.08,22.46-16.32,35.38-21.4
				c-7.67-2.39-17.51-13.56-24.52-28.79c-8.95-19.43-9.9-38.09-2.13-41.67c7.77-3.58,21.33,9.28,30.27,28.72
				c7.44,16.17,9.33,31.76,5.28,38.62c8.4-2.57,17.05-4.21,25.8-4.92c-4.79-6.58-8.06-19.33-8.06-33.99
				c0-21.39,6.94-38.74,15.49-38.74s15.5,17.34,15.5,38.74c0,14.44-3.19,27.02-7.86,33.68c9.67,0.4,19.26,1.94,28.56,4.6
				c-2.17-7.83,0.1-21.44,6.57-35.5c8.95-19.43,22.5-32.29,30.27-28.72c7.77,3.57,6.82,22.23-2.12,41.67
				c-6.03,13.09-14.14,23.16-21.17,27.27c12.58,5.27,24.19,12.6,34.37,21.69c-1.26-7.63,7.31-20.97,21.34-32.24
				c16.27-13.06,33.69-18.37,38.91-11.87s-3.73,22.37-19.99,35.43c-12.93,10.37-26.56,15.84-34.25,14.39
				c7.3,7.46,13.63,15.81,18.83,24.86c5.28-5.92,17.36-11.38,32-13.78c20.59-3.39,38.37,0.54,39.73,8.77
				S591.93,265.78,571.34,269.17z M243.88,246.04c-1.58,9.61-10.65,16.12-20.25,14.54s-16.12-10.65-14.54-20.25
				c1.58-9.61,10.65-16.12,20.25-14.54c0,0,0,0,0,0C238.95,227.37,245.45,236.43,243.88,246.04c-0.01,0.01-0.01,0.01-0.01,0.02
				L243.88,246.04z M283.32,173.77c-6.09,7.59-17.19,8.81-24.78,2.71c-7.59-6.09-8.81-17.19-2.71-24.78
				c6.09-7.59,17.19-8.81,24.78-2.71c0,0,0,0,0,0C288.2,155.08,289.41,166.18,283.32,173.77c0,0.01-0.01,0.01-0.01,0.02
				L283.32,173.77z M347.15,125.74c-8.84,4.07-19.31,0.2-23.38-8.64c-4.07-8.84-0.2-19.31,8.64-23.38
				c8.84-4.07,19.31-0.2,23.38,8.64c0,0,0,0,0,0C359.86,111.2,355.99,121.66,347.15,125.74
				C347.15,125.74,347.15,125.74,347.15,125.74z M426.75,113.95c-9.99,0-18.08-8.09-18.08-18.08c0-9.99,8.09-18.08,18.08-18.08
				c9.99,0,18.08,8.09,18.08,18.08c0,0,0,0.01,0,0.01c0,9.98-8.09,18.07-18.06,18.08L426.75,113.95z M531.42,119.61
				c-4.07,8.84-14.54,12.71-23.38,8.64c-8.84-4.07-12.71-14.54-8.64-23.38c4.07-8.84,14.54-12.71,23.38-8.64
				C531.62,100.29,535.49,110.75,531.42,119.61C531.42,119.6,531.42,119.6,531.42,119.61z M599.33,179
				c-7.59,6.09-18.68,4.88-24.78-2.71c-6.09-7.59-4.88-18.68,2.71-24.78c7.59-6.09,18.68-4.88,24.78,2.71
				C608.13,161.81,606.92,172.91,599.33,179L599.33,179z M625.86,228.3c9.61-1.58,18.68,4.92,20.26,14.53
				c1.58,9.61-4.92,18.68-14.53,20.26c-9.61,1.58-18.68-4.92-20.26-14.53c0,0,0,0,0-0.01C609.75,238.95,616.26,229.88,625.86,228.3
				L625.86,228.3z"/>
			<path class="st1" d="M357.92,284.39h140.3c-11.6-27.29-38.69-46.48-70.15-46.48S369.5,257.1,357.92,284.39z"/>
		</g>
	</g>
</g>
</svg>
