<svg id="Capa_1" data-name="Capa 1" xmlns="http://www.w3.org/2000/svg" viewBox="0 0 133.77 34.54"><defs><style>.cls-1{isolation:isolate;}.cls-2{fill:#fbb92b;}</style></defs><g class="cls-1"><path class="cls-2" d="M81.64,26.38a3.85,3.85,0,0,1,.7,2.52,4.16,4.16,0,0,1-1.28,3.46,5.7,5.7,0,0,1-3.59,1h-3.6V18.05H77a6,6,0,0,1,3.6.91,3.48,3.48,0,0,1,1.24,3,3.65,3.65,0,0,1-.59,2.18,2.87,2.87,0,0,1-1.46,1.11A3.4,3.4,0,0,1,81.64,26.38Zm-5.12-5.77v3.56h1q1.68,0,1.68-1.86A1.65,1.65,0,0,0,78.73,21a2.17,2.17,0,0,0-1.44-.39Zm2.55,9.69a2,2,0,0,0,.54-1.6c0-1.41-.64-2.12-1.93-2.12H76.52v4.15h1A2.49,2.49,0,0,0,79.07,30.3Z" transform="translate(-4.45 -13)"/><path class="cls-2" d="M86.12,16a2.27,2.27,0,0,1,.43,1.43,2.24,2.24,0,0,1-.43,1.42,1.32,1.32,0,0,1-2.17,0,2.3,2.3,0,0,1-.42-1.42A2.33,2.33,0,0,1,84,16a1.33,1.33,0,0,1,2.17,0Zm.21,5.63V33.36H83.78V21.63Z" transform="translate(-4.45 -13)"/><path class="cls-2" d="M95.75,28.52H90.44a4,4,0,0,0,.61,2.08,1.64,1.64,0,0,0,1.34.6,2.1,2.1,0,0,0,1-.26,4.87,4.87,0,0,0,1-.78l1,1.94a4.43,4.43,0,0,1-3.34,1.64A3.59,3.59,0,0,1,89,32.06a8,8,0,0,1-1.12-4.51,10.32,10.32,0,0,1,.47-3.21,5.13,5.13,0,0,1,1.37-2.26,3.09,3.09,0,0,1,2.16-.83,3.31,3.31,0,0,1,2.91,1.59,8,8,0,0,1,1,4.42C95.8,27.75,95.78,28.17,95.75,28.52ZM93.3,26.27c0-1.8-.49-2.7-1.39-2.7a1.13,1.13,0,0,0-1,.67,5.4,5.4,0,0,0-.44,2.18H93.3Z" transform="translate(-4.45 -13)"/><path class="cls-2" d="M104,22.18a4.62,4.62,0,0,1,.63,2.61v8.57h-2.55v-8a2.71,2.71,0,0,0-.2-1.23.65.65,0,0,0-.6-.34c-.52,0-1,.5-1.49,1.52v8H97.23V21.63h2.23L99.64,23a4.46,4.46,0,0,1,1.18-1.33,2.49,2.49,0,0,1,1.43-.44A2,2,0,0,1,104,22.18Z" transform="translate(-4.45 -13)"/><path class="cls-2" d="M121.51,33.36h-2.59l-.2-6c0-1.42-.08-2.7-.08-3.82,0-.85,0-1.66,0-2.43L117,31.75h-2.5l-1.84-10.63c.07,1.28.1,2.49.1,3.62,0,.86,0,1.75,0,2.68l-.19,5.94H109.9l.84-15.31h3.34l1.67,10.39,1.57-10.39h3.35Z" transform="translate(-4.45 -13)"/><path class="cls-2" d="M125.48,14.91l1,2.61-3.81,2.1L122,17.83Zm.12,6.72V33.36h-2.55V21.63Z" transform="translate(-4.45 -13)"/><path class="cls-2" d="M134.39,22.9a8.18,8.18,0,0,1,1.11,4.61,9.62,9.62,0,0,1-.51,3.28A4.9,4.9,0,0,1,133.54,33a3.43,3.43,0,0,1-2.23.77,3.53,3.53,0,0,1-3.08-1.65,8.14,8.14,0,0,1-1.12-4.6,9.64,9.64,0,0,1,.51-3.29A4.86,4.86,0,0,1,129.07,22a3.41,3.41,0,0,1,2.24-.78A3.52,3.52,0,0,1,134.39,22.9Zm-4.25,1.81a7.64,7.64,0,0,0-.38,2.78,7.44,7.44,0,0,0,.38,2.8,1.24,1.24,0,0,0,1.17.89,1.26,1.26,0,0,0,1.16-.9,7.36,7.36,0,0,0,.39-2.77,7.71,7.71,0,0,0-.38-2.81,1.22,1.22,0,0,0-2.34,0Z" transform="translate(-4.45 -13)"/></g><g class="cls-1"><path class="cls-2" d="M70.39,36.73v4H70v-4Z" transform="translate(-4.45 -13)"/><path class="cls-2" d="M73.3,40.75h-.54l-1.2-3.41c0,.27,0,.52,0,.74s0,.51,0,.83v1.84h-.38v-4h.53L73,40.15c0-.1,0-.28,0-.53s0-.48,0-.69v-2.2h.38Z" transform="translate(-4.45 -13)"/><path class="cls-2" d="M75.37,36.78a1.3,1.3,0,0,1,.41.35l-.22.34a1.51,1.51,0,0,0-.33-.27.81.81,0,0,0-.34-.08.5.5,0,0,0-.38.15.54.54,0,0,0-.15.42.85.85,0,0,0,0,.3.53.53,0,0,0,.19.21,1.81,1.81,0,0,0,.4.21,2.16,2.16,0,0,1,.46.25,1.11,1.11,0,0,1,.3.37,1.5,1.5,0,0,1,.11.6,1.38,1.38,0,0,1-.13.62.93.93,0,0,1-.36.42,1,1,0,0,1-.56.15,1.18,1.18,0,0,1-1-.52l.22-.34a1.19,1.19,0,0,0,.36.3.81.81,0,0,0,.41.11.62.62,0,0,0,.45-.19.72.72,0,0,0,.18-.53.81.81,0,0,0-.06-.33.54.54,0,0,0-.19-.24,1.61,1.61,0,0,0-.38-.21,1.49,1.49,0,0,1-.66-.44,1.14,1.14,0,0,1-.21-.72,1.33,1.33,0,0,1,.11-.54.91.91,0,0,1,.33-.37.86.86,0,0,1,.48-.13A1,1,0,0,1,75.37,36.78Z" transform="translate(-4.45 -13)"/><path class="cls-2" d="M78.08,37.05a1.27,1.27,0,0,1,.3.93,1.4,1.4,0,0,1-.31,1,1.13,1.13,0,0,1-.83.32h-.37v1.47h-.4v-4h.77A1.11,1.11,0,0,1,78.08,37.05Zm-.32,1.6A1,1,0,0,0,78,38a.88.88,0,0,0-.19-.62.69.69,0,0,0-.53-.19h-.36v1.67h.35A.7.7,0,0,0,77.76,38.65Z" transform="translate(-4.45 -13)"/></g><g class="cls-1"><path class="cls-2" d="M80.52,36.73l0,.45H79.34v1.31h1v.44h-1v1.38h1.22v.44H78.94v-4Z" transform="translate(-4.45 -13)"/></g><g class="cls-1"><path class="cls-2" d="M82.63,36.76a1.22,1.22,0,0,1,.37.3l-.22.36a.77.77,0,0,0-.57-.3.68.68,0,0,0-.59.38,2.71,2.71,0,0,0-.22,1.24A2.55,2.55,0,0,0,81.62,40a.67.67,0,0,0,.59.39.62.62,0,0,0,.33-.08,1.56,1.56,0,0,0,.29-.25l.2.35a1,1,0,0,1-.34.32.92.92,0,0,1-.49.13,1,1,0,0,1-.64-.24,1.51,1.51,0,0,1-.43-.71A3.42,3.42,0,0,1,81,38.74a3.75,3.75,0,0,1,.16-1.13,1.69,1.69,0,0,1,.44-.71.92.92,0,0,1,.62-.23A1,1,0,0,1,82.63,36.76Z" transform="translate(-4.45 -13)"/></g><g class="cls-1"><path class="cls-2" d="M84.93,36.76a1.35,1.35,0,0,1,.37.3l-.22.36a.77.77,0,0,0-.57-.3.68.68,0,0,0-.59.38,2.59,2.59,0,0,0-.22,1.24A2.55,2.55,0,0,0,83.92,40a.66.66,0,0,0,.59.39.57.57,0,0,0,.32-.08,1.33,1.33,0,0,0,.3-.25l.2.35a1.07,1.07,0,0,1-.35.32.88.88,0,0,1-.49.13.94.94,0,0,1-.63-.24,1.6,1.6,0,0,1-.44-.71,3.73,3.73,0,0,1-.15-1.13,3.46,3.46,0,0,1,.16-1.13,1.6,1.6,0,0,1,.44-.71.9.9,0,0,1,.62-.23A1,1,0,0,1,84.93,36.76Z" transform="translate(-4.45 -13)"/><path class="cls-2" d="M86.25,36.73v4h-.41v-4Z" transform="translate(-4.45 -13)"/><path class="cls-2" d="M88.79,36.91a1.55,1.55,0,0,1,.44.71,3.68,3.68,0,0,1,.15,1.13,3.63,3.63,0,0,1-.15,1.11,1.64,1.64,0,0,1-.44.72,1,1,0,0,1-1.29,0,1.48,1.48,0,0,1-.44-.7,4.29,4.29,0,0,1,0-2.25,1.61,1.61,0,0,1,.44-.72,1,1,0,0,1,1.29,0Zm-1.24.61a3.71,3.71,0,0,0,0,2.46.65.65,0,0,0,.59.39q.81,0,.81-1.62c0-1.09-.27-1.63-.81-1.63A.65.65,0,0,0,87.55,37.52Zm.93-2.08.17.45-.91.46-.11-.29Z" transform="translate(-4.45 -13)"/><path class="cls-2" d="M92.1,40.75h-.54l-1.2-3.41c0,.27,0,.52,0,.74s0,.51,0,.83v1.84H90v-4h.53l1.2,3.42c0-.1,0-.28,0-.53s0-.48,0-.69v-2.2h.38Z" transform="translate(-4.45 -13)"/><path class="cls-2" d="M93.24,40.13a.43.43,0,0,1,.09.28,1.46,1.46,0,0,1-.08.42l-.29.89h-.28l.17-1a.64.64,0,0,1-.08-.14.45.45,0,0,1,0-.2.43.43,0,0,1,.09-.28.24.24,0,0,1,.42,0Z" transform="translate(-4.45 -13)"/><path class="cls-2" d="M97,36.73l-.94,4h-.43l-.94-4h.43l.74,3.42.73-3.42Z" transform="translate(-4.45 -13)"/><path class="cls-2" d="M97.86,36.73v4h-.4v-4Z" transform="translate(-4.45 -13)"/><path class="cls-2" d="M100.27,36.77a1.54,1.54,0,0,1,.41.34l-.24.34a1.23,1.23,0,0,0-.3-.25.74.74,0,0,0-.34-.08.64.64,0,0,0-.42.17,1.2,1.2,0,0,0-.31.53,3,3,0,0,0-.12.92A2.77,2.77,0,0,0,99.16,40a.63.63,0,0,0,.59.39.89.89,0,0,0,.56-.18V39h-.52l0-.45h1v1.95a1.56,1.56,0,0,1-1,.35,1,1,0,0,1-.9-.53,3,3,0,0,1-.33-1.55,3.09,3.09,0,0,1,.18-1.12,1.62,1.62,0,0,1,.46-.71,1,1,0,0,1,1.11-.14Z" transform="translate(-4.45 -13)"/><path class="cls-2" d="M101.8,36.73v4h-.4v-4Z" transform="translate(-4.45 -13)"/><path class="cls-2" d="M103.06,36.73v3.54h1.2l0,.48h-1.56v-4Z" transform="translate(-4.45 -13)"/><path class="cls-2" d="M106.33,40.75l-.22-1H105l-.22,1h-.41l.94-4h.51l.94,4Zm-1.23-1.46H106l-.46-2.09Z" transform="translate(-4.45 -13)"/><path class="cls-2" d="M109.27,40.75h-.54l-1.2-3.41c0,.27,0,.52,0,.74s0,.51,0,.83v1.84h-.38v-4h.53l1.2,3.42c0-.1,0-.28,0-.53s0-.48,0-.69v-2.2h.38Z" transform="translate(-4.45 -13)"/><path class="cls-2" d="M111.59,36.76a1.19,1.19,0,0,1,.36.3l-.22.36a.75.75,0,0,0-.56-.3.67.67,0,0,0-.59.38,2.59,2.59,0,0,0-.22,1.24,2.55,2.55,0,0,0,.22,1.22.65.65,0,0,0,.58.39.58.58,0,0,0,.33-.08,2,2,0,0,0,.3-.25l.2.35a1.07,1.07,0,0,1-.35.32.88.88,0,0,1-.49.13,1,1,0,0,1-.64-.24,1.59,1.59,0,0,1-.43-.71,3.73,3.73,0,0,1-.15-1.13,3.46,3.46,0,0,1,.16-1.13,1.52,1.52,0,0,1,.44-.71.9.9,0,0,1,.61-.23A1,1,0,0,1,111.59,36.76Z" transform="translate(-4.45 -13)"/><path class="cls-2" d="M112.9,36.73v4h-.4v-4Z" transform="translate(-4.45 -13)"/><path class="cls-2" d="M115.32,40.75l-.23-1H114l-.22,1h-.41l.94-4h.52l.93,4Zm-1.24-1.46H115l-.46-2.09Z" transform="translate(-4.45 -13)"/><path class="cls-2" d="M119.21,36.73l-.94,2.48v1.54h-.41V39.21l-.94-2.48h.44l.72,2,.71-2Z" transform="translate(-4.45 -13)"/></g><g class="cls-1"><path class="cls-2" d="M122.26,36.76a1.35,1.35,0,0,1,.37.3l-.23.36a.74.74,0,0,0-.56-.3.67.67,0,0,0-.59.38,2.59,2.59,0,0,0-.22,1.24,2.55,2.55,0,0,0,.22,1.22.65.65,0,0,0,.58.39.58.58,0,0,0,.33-.08,1.33,1.33,0,0,0,.3-.25l.2.35a1.07,1.07,0,0,1-.35.32.88.88,0,0,1-.49.13.92.92,0,0,1-.63-.24,1.6,1.6,0,0,1-.44-.71,3.73,3.73,0,0,1-.15-1.13,3.46,3.46,0,0,1,.16-1.13,1.6,1.6,0,0,1,.44-.71.9.9,0,0,1,.61-.23A1,1,0,0,1,122.26,36.76Z" transform="translate(-4.45 -13)"/></g><g class="cls-1"><path class="cls-2" d="M124.78,36.91a1.46,1.46,0,0,1,.43.71,3.38,3.38,0,0,1,.16,1.13,3.34,3.34,0,0,1-.16,1.11,1.54,1.54,0,0,1-.43.72,1,1,0,0,1-.65.24,1,1,0,0,1-.65-.24,1.55,1.55,0,0,1-.43-.7,4,4,0,0,1,0-2.25,1.61,1.61,0,0,1,.44-.72,1,1,0,0,1,1.29,0Zm-1.24.61a2.57,2.57,0,0,0-.22,1.23,2.7,2.7,0,0,0,.22,1.23.65.65,0,0,0,.59.39q.81,0,.81-1.62c0-1.09-.27-1.63-.81-1.63A.65.65,0,0,0,123.54,37.52Z" transform="translate(-4.45 -13)"/><path class="cls-2" d="M128.08,40.75h-.54l-1.19-3.41c0,.27,0,.52,0,.74s0,.51,0,.83v1.84H126v-4h.53l1.2,3.42c0-.1,0-.28,0-.53s0-.48,0-.69v-2.2h.37Z" transform="translate(-4.45 -13)"/><path class="cls-2" d="M130.67,36.73l0,.48h-.81v3.54h-.4V37.21h-.84v-.48Z" transform="translate(-4.45 -13)"/></g><g class="cls-1"><path class="cls-2" d="M132,39.05h-.45v1.7h-.41v-4h.77A1,1,0,0,1,133,37.87a1.25,1.25,0,0,1-.16.68.93.93,0,0,1-.47.4l.79,1.8h-.48Zm0-.43a.65.65,0,0,0,.48-.17.84.84,0,0,0,.16-.58.79.79,0,0,0-.16-.54.73.73,0,0,0-.53-.16h-.36v1.45Z" transform="translate(-4.45 -13)"/></g><g class="cls-1"><path class="cls-2" d="M135.37,36.91a1.54,1.54,0,0,1,.43.71,3.68,3.68,0,0,1,.15,1.13,3.63,3.63,0,0,1-.15,1.11,1.63,1.63,0,0,1-.43.72,1,1,0,0,1-.65.24,1,1,0,0,1-.65-.24,1.56,1.56,0,0,1-.44-.7,4.29,4.29,0,0,1,0-2.25,1.7,1.7,0,0,1,.44-.72,1,1,0,0,1,.65-.24A1,1,0,0,1,135.37,36.91Zm-1.25.61a3.71,3.71,0,0,0,0,2.46.66.66,0,0,0,.6.39q.81,0,.81-1.62c0-1.09-.27-1.63-.81-1.63A.65.65,0,0,0,134.12,37.52Z" transform="translate(-4.45 -13)"/><path class="cls-2" d="M137,36.73v3.54h1.2l0,.48h-1.57v-4Z" transform="translate(-4.45 -13)"/></g><g class="cls-1"><path class="cls-2" d="M80.91,46.82l-.22-1H79.58l-.22,1H79l.94-4h.51l.94,4Zm-1.23-1.46h.91l-.45-2.1Z" transform="translate(-4.45 -13)"/><path class="cls-2" d="M82.19,42.8v3.53H83.4l-.05.49H81.79v-4Z" transform="translate(-4.45 -13)"/></g><g class="cls-1"><path class="cls-2" d="M86.65,43.11A1.3,1.3,0,0,1,87,44a1.39,1.39,0,0,1-.31,1,1.09,1.09,0,0,1-.83.32h-.37v1.48H85v-4h.77A1.14,1.14,0,0,1,86.65,43.11Zm-.32,1.61a.93.93,0,0,0,.19-.67.82.82,0,0,0-.19-.62.69.69,0,0,0-.53-.2h-.36v1.68h.35A.74.74,0,0,0,86.33,44.72Z" transform="translate(-4.45 -13)"/></g><g class="cls-1"><path class="cls-2" d="M88.81,46.82l-.22-1H87.48l-.22,1h-.41l.94-4h.51l.94,4Zm-1.23-1.46h.91L88,43.26Z" transform="translate(-4.45 -13)"/></g><g class="cls-1"><path class="cls-2" d="M91.21,42.8l0,.47h-.82v3.55H90V43.27h-.83V42.8Z" transform="translate(-4.45 -13)"/><path class="cls-2" d="M92.54,45.12h-.46v1.7h-.4v-4h.77a1.13,1.13,0,0,1,.83.29,1.15,1.15,0,0,1,.28.85,1.25,1.25,0,0,1-.16.68,1,1,0,0,1-.47.4l.79,1.8h-.48Zm-.05-.43a.62.62,0,0,0,.48-.18.83.83,0,0,0,.16-.57A.74.74,0,0,0,93,43.4a.73.73,0,0,0-.53-.17h-.36v1.46Z" transform="translate(-4.45 -13)"/><path class="cls-2" d="M94.66,42.8v4h-.41v-4Z" transform="translate(-4.45 -13)"/></g><g class="cls-1"><path class="cls-2" d="M98.13,46.82h-.39L97.63,45c0-.71-.06-1.25-.07-1.63l-.63,3h-.38l-.67-3c0,.49,0,1,0,1.69l-.1,1.77h-.39l.25-4h.54l.62,2.92.59-2.92h.54Z" transform="translate(-4.45 -13)"/></g><g class="cls-1"><path class="cls-2" d="M100.47,43a1.59,1.59,0,0,1,.43.71,3.42,3.42,0,0,1,.16,1.13,3.36,3.36,0,0,1-.16,1.12,1.59,1.59,0,0,1-.43.71.93.93,0,0,1-.65.25,1,1,0,0,1-.65-.24,1.59,1.59,0,0,1-.43-.71,3.36,3.36,0,0,1-.16-1.12,3.4,3.4,0,0,1,.16-1.12,1.57,1.57,0,0,1,.43-.72,1,1,0,0,1,.65-.25A1,1,0,0,1,100.47,43Zm-1.25.61A2.8,2.8,0,0,0,99,44.82,2.55,2.55,0,0,0,99.23,46a.65.65,0,0,0,.59.39q.81,0,.81-1.62t-.81-1.62A.68.68,0,0,0,99.22,43.58Z" transform="translate(-4.45 -13)"/><path class="cls-2" d="M103.77,46.82h-.54L102,43.41c0,.27,0,.51,0,.74s0,.5,0,.83v1.84h-.38v-4h.53l1.2,3.42c0-.1,0-.28,0-.53s0-.49,0-.7V42.8h.38Z" transform="translate(-4.45 -13)"/><path class="cls-2" d="M105,42.8v4h-.41v-4Z" transform="translate(-4.45 -13)"/><path class="cls-2" d="M107.57,43a1.6,1.6,0,0,1,.44.71,3.73,3.73,0,0,1,.15,1.13,3.66,3.66,0,0,1-.15,1.12,1.6,1.6,0,0,1-.44.71.91.91,0,0,1-.65.25.94.94,0,0,1-.64-.24,1.6,1.6,0,0,1-.44-.71,3.66,3.66,0,0,1-.15-1.12,3.7,3.7,0,0,1,.15-1.12,1.58,1.58,0,0,1,.44-.72.92.92,0,0,1,.64-.25A1,1,0,0,1,107.57,43Zm-1.24.61a2.8,2.8,0,0,0-.21,1.24,2.7,2.7,0,0,0,.21,1.22.65.65,0,0,0,.59.39q.81,0,.81-1.62t-.81-1.62A.65.65,0,0,0,106.33,43.58Z" transform="translate(-4.45 -13)"/><path class="cls-2" d="M112.57,46.82h-.39l-.1-1.82c0-.71-.07-1.25-.08-1.63l-.63,3H111l-.67-3c0,.49,0,1,0,1.69l-.1,1.77h-.38l.24-4h.55l.61,2.92.59-2.92h.55Z" transform="translate(-4.45 -13)"/></g><g class="cls-1"><path class="cls-2" d="M114.82,46.82l-.22-1h-1.11l-.22,1h-.41l.94-4h.51l.94,4Zm-1.23-1.46h.91l-.45-2.1Z" transform="translate(-4.45 -13)"/></g><g class="cls-1"><path class="cls-2" d="M117.22,42.8l0,.47h-.81v3.55H116V43.27h-.84V42.8Z" transform="translate(-4.45 -13)"/><path class="cls-2" d="M119.27,42.8l0,.44h-1.13v1.32h1V45h-1v1.37h1.22v.45h-1.63v-4Z" transform="translate(-4.45 -13)"/><path class="cls-2" d="M120.82,45.12h-.46v1.7H120v-4h.77a1.12,1.12,0,0,1,.83.29,1.15,1.15,0,0,1,.29.85,1.34,1.34,0,0,1-.16.68,1.06,1.06,0,0,1-.48.4l.79,1.8h-.48Zm0-.43a.59.59,0,0,0,.48-.18.83.83,0,0,0,.17-.57.74.74,0,0,0-.17-.54.71.71,0,0,0-.52-.17h-.37v1.46Z" transform="translate(-4.45 -13)"/><path class="cls-2" d="M122.94,42.8v4h-.41v-4Z" transform="translate(-4.45 -13)"/><path class="cls-2" d="M125.35,46.82l-.22-1H124l-.22,1h-.41l.94-4h.51l.94,4Zm-1.23-1.46H125l-.45-2.1Z" transform="translate(-4.45 -13)"/><path class="cls-2" d="M126.63,42.8v3.53h1.21l0,.49h-1.56v-4Z" transform="translate(-4.45 -13)"/><path class="cls-2" d="M128.64,46.19a.57.57,0,0,1,0,.58.26.26,0,0,1-.21.12.24.24,0,0,1-.21-.12.51.51,0,0,1,0-.58.25.25,0,0,1,.21-.11A.28.28,0,0,1,128.64,46.19Z" transform="translate(-4.45 -13)"/></g><path class="cls-2" d="M47.32,45.65a4.8,4.8,0,0,1-2.67-.08,18.23,18.23,0,0,1,.47,2H64.27a52.3,52.3,0,0,0-1.2-6.42A8,8,0,0,1,59.24,43c-2.49.56-4.61.19-4.73-.83s1.79-2.3,4.29-2.86a7.58,7.58,0,0,1,3.76-.05A45.27,45.27,0,0,0,55.7,25c.47.81-.34,2.77-1.81,4.39s-3,2.28-3.52,1.47.34-2.77,1.81-4.39,3-2.27,3.51-1.48a32,32,0,0,0-9.37-8.67,10.87,10.87,0,0,1-.64,3.77c-.79,2.35-2,3.9-2.67,3.47s-.6-2.69.19-5a8.76,8.76,0,0,1,1.59-3A23,23,0,0,0,35.08,13a12.13,12.13,0,0,1,.45,3.51c0,2.65-.63,4.8-1.4,4.8s-1.4-2.15-1.4-4.8A12.42,12.42,0,0,1,33.17,13a23.35,23.35,0,0,0-9.12,2.44,9.89,9.89,0,0,1,1.39,2.79c.79,2.35.87,4.6.19,5S23.75,22.16,23,19.82a11.64,11.64,0,0,1-.65-3.41,31.75,31.75,0,0,0-8.87,8.07c.65-.35,2,.33,3.26,1.72,1.47,1.62,2.28,3.58,1.8,4.39s-2,.15-3.51-1.47-2.15-3.28-1.9-4.18A45.13,45.13,0,0,0,6.27,38.85,8,8,0,0,1,9.84,39c2.49.56,4.41,1.84,4.29,2.86s-2.24,1.4-4.73.83a8.44,8.44,0,0,1-3.71-1.71,54.91,54.91,0,0,0-1.24,6.6H23.6a17.85,17.85,0,0,1,.59-2.37,4.45,4.45,0,0,1-2.87.17c-1.86-.42-3.27-1.59-3.15-2.61s1.74-1.5,3.6-1.08a4.44,4.44,0,0,1,3,1.92,15.25,15.25,0,0,1,1.92-3.33c-.67.28-2-.4-3.19-1.75C22,36.87,21.23,34.91,21.7,34.1s2.05-.14,3.52,1.47,2.12,3.24,1.9,4.15a11,11,0,0,1,3.2-2.65c-.7-.3-1.59-1.68-2.22-3.57-.81-2.4-.9-4.72-.19-5.16s1.93,1.15,2.73,3.56c.68,2,.85,3.93.48,4.78a8.45,8.45,0,0,1,2.33-.61,10.08,10.08,0,0,1-.72-4.21c0-2.65.62-4.8,1.4-4.8s1.4,2.15,1.4,4.8A10.2,10.2,0,0,1,34.82,36a8.67,8.67,0,0,1,2.58.57A9.68,9.68,0,0,1,38,32.21c.81-2.41,2-4,2.74-3.56s.62,2.75-.19,5.16a7.91,7.91,0,0,1-1.92,3.38,11.2,11.2,0,0,1,3.11,2.69c-.11-1,.66-2.6,1.93-4,1.47-1.61,3.05-2.27,3.52-1.47s-.34,2.78-1.81,4.39c-1.17,1.29-2.4,2-3.09,1.79A15.65,15.65,0,0,1,44,43.66,4.8,4.8,0,0,1,46.87,42c1.86-.42,3.47.06,3.59,1.08S49.18,45.23,47.32,45.65ZM17.71,42.78c-.14,1.19-1,2-1.83,1.8a2.2,2.2,0,0,1-1.32-2.5c.15-1.19,1-2,1.83-1.81h0a2.22,2.22,0,0,1,1.32,2.51h0Zm3.56-9a1.33,1.33,0,0,1-2.24.34,2.78,2.78,0,0,1-.24-3.07A1.33,1.33,0,0,1,21,30.76h0a2.76,2.76,0,0,1,.24,3.07Zm5.78-5.95c-.8.51-1.75,0-2.12-1.07a2.56,2.56,0,0,1,.78-2.89c.8-.51,1.75,0,2.12,1.07h0a2.59,2.59,0,0,1-.78,2.89Zm7.19-1.46c-.9,0-1.63-1-1.63-2.24s.73-2.24,1.63-2.24,1.64,1,1.64,2.24h0c0,1.24-.73,2.24-1.64,2.24Zm9.47.7c-.37,1.1-1.32,1.58-2.12,1.07a2.56,2.56,0,0,1-.78-2.89c.37-1.1,1.31-1.58,2.11-1.07a2.58,2.58,0,0,1,.79,2.89Zm6.14,7.36a1.32,1.32,0,0,1-2.24-.34,2.73,2.73,0,0,1,.24-3.06,1.32,1.32,0,0,1,2.24.33,2.78,2.78,0,0,1-.24,3.07Zm2.39,6.11c.87-.2,1.69.61,1.84,1.8a2.22,2.22,0,0,1-1.32,2.51c-.87.19-1.69-.61-1.83-1.8h0a2.21,2.21,0,0,1,1.32-2.51Z" transform="translate(-4.45 -13)"/><path class="cls-2" d="M28,47.54H40.7c-1-3.39-3.49-5.76-6.34-5.76S29.07,44.15,28,47.54Z" transform="translate(-4.45 -13)"/></svg>