<svg id="Capa_1" data-name="Capa 1" xmlns="http://www.w3.org/2000/svg" viewBox="0 0 752.76 268.5"><defs><style>.cls-1{fill:#4e3615;}.cls-2{fill:none;stroke:#4e3615;stroke-miterlimit:10;}</style></defs><path class="cls-1" d="M452.88,318.88a71.7,71.7,0,0,1-11.44,30.71,61.65,61.65,0,0,1-24.45,21q-15.42,7.59-36.13,7.59-28.17,0-42.62-13.25t-14.46-36.12a78.67,78.67,0,0,1,.73-10.6l15.65-111h38.78L363.52,317.44a72,72,0,0,0-.72,9.63q0,11.08,5.06,16.38t15.89,5.3q13.5,0,20.84-7.95t9.51-24.09l15.66-109.58h38.77Z" transform="translate(-50.06 -147.34)"/><path class="cls-1" d="M595.7,218.93q16.13,11.81,16.13,34.68a68.23,68.23,0,0,1-7.46,31.31q-7.47,14.7-24,24.09t-42,9.39H520.07L512.36,374H473.59L497,207.13h53Q579.55,207.13,595.7,218.93Zm-31.55,60.81q7.46-10.23,7.46-24.2,0-10.59-6.38-15.42t-19.15-4.81H531.87L524.17,290h14.21Q556.68,290,564.15,279.74Z" transform="translate(-50.06 -147.34)"/><path class="cls-1" d="M742.61,225,721.9,245.66q-14.46-13.72-33.72-13.72-11.56,0-18.43,4.93a15.87,15.87,0,0,0-6.86,13.61A13.74,13.74,0,0,0,668.67,262q5.77,4.33,22.16,9.88,21.43,7,32.15,18.06t10.72,29.38a57.86,57.86,0,0,1-7.35,28.3Q719,361,703,369.58t-40.58,8.55q-20.24,0-35.29-6.62a76.52,76.52,0,0,1-25.41-17.71l22.4-22.15Q640,348,663.37,348q13.73,0,21.56-6t7.82-16.62a16.9,16.9,0,0,0-5.66-13.24q-5.65-5.06-20.59-10.36-23.61-7.95-34-19t-10.35-27.69a47.78,47.78,0,0,1,7.22-25.17q7.23-11.92,21.8-19.39T687,203Q721.17,203,742.61,225Z" transform="translate(-50.06 -147.34)"/><path class="cls-1" d="M747.18,372.59q-5.29-5.54-5.29-14.21a23.09,23.09,0,0,1,7-16.74,22.8,22.8,0,0,1,16.86-7.1,18.24,18.24,0,0,1,13.61,5.54,19.16,19.16,0,0,1,5.42,14,23.55,23.55,0,0,1-6.87,17,22.64,22.64,0,0,1-17,7.11A18.16,18.16,0,0,1,747.18,372.59Zm5.78-60,10.12-105.49h39.74L783.31,312.62Z" transform="translate(-50.06 -147.34)"/><path class="cls-1" d="M101.21,280.62q4.1,3.57,4.09,10.71,0,10.43-7.47,14.7t-20.9,4.27H56V245.2H74.39q13.73,0,21,3.9t7.24,12.73a12.72,12.72,0,0,1-3.43,9.25,17.26,17.26,0,0,1-8.51,4.75,21.77,21.77,0,0,1,10.57,4.79M71.39,256.1v15.12h5.73q9.76,0,9.77-7.89,0-3.94-2.63-5.59T75.9,256.1Zm14.89,41.19q3.14-1.83,3.14-6.81,0-9-11.27-9H71.39v17.67H77c4.07,0,7.16-.62,9.26-1.84" transform="translate(-50.06 -147.34)"/><path class="cls-1" d="M127.33,236.51a8.62,8.62,0,0,1,0,12.12A8.77,8.77,0,0,1,121,251a8.61,8.61,0,0,1-6.3-2.4,8.75,8.75,0,0,1,0-12.12,8.61,8.61,0,0,1,6.3-2.39,8.77,8.77,0,0,1,6.34,2.39m1.17,73.79H113.66V260.42H128.5Z" transform="translate(-50.06 -147.34)"/><path class="cls-1" d="M183.37,289.73H152.46q.75,6.3,3.57,8.83c1.88,1.69,4.47,2.54,7.8,2.54a16.14,16.14,0,0,0,5.82-1.08,29.59,29.59,0,0,0,6.1-3.34l6.11,8.27a30.41,30.41,0,0,1-19.44,6.95q-12.12,0-18.61-7.14t-6.48-19.16a32.91,32.91,0,0,1,2.73-13.67,21.51,21.51,0,0,1,20.57-13.11q10.8,0,16.91,6.77t6.11,18.79a45.54,45.54,0,0,1-.28,5.35m-14.28-9.58q-.19-11.46-8.08-11.46a7,7,0,0,0-6,2.82q-2.11,2.81-2.58,9.3h16.63Z" transform="translate(-50.06 -147.34)"/><path class="cls-1" d="M231.37,262.77q3.66,3.94,3.66,11.08V310.3H220.19V276.39q0-3.75-1.17-5.21a4.28,4.28,0,0,0-3.53-1.46c-3,0-5.89,2.16-8.64,6.48v34.1H192V260.42h13l1,5.92a22.47,22.47,0,0,1,6.91-5.64,18.14,18.14,0,0,1,8.31-1.88q6.48,0,10.15,3.95" transform="translate(-50.06 -147.34)"/><path class="cls-1" d="M136.44,413.89H117.92l-1.38-31.17q-.58-11.16-.58-19.9,0-6.68.35-12.65L104,405.49H86.17L73.06,350.17q.69,10,.69,18.86,0,6.68-.34,13.92L72,413.89H53.62l6-79.71h23.8l12,54.06,11.15-54.06h23.93Z" transform="translate(-50.06 -147.34)"/><path class="cls-1" d="M164.73,317.85l7.13,13.57-27.14,10.93L139.66,333Zm.8,96H147.36V352.81h18.17Z" transform="translate(-50.06 -147.34)"/><path class="cls-1" d="M228.22,359.43q7.93,8.56,7.93,24a37.93,37.93,0,0,1-3.62,17.08,26.8,26.8,0,0,1-10.35,11.33,30.5,30.5,0,0,1-15.93,4q-13.92,0-21.91-8.57t-8-24A38,38,0,0,1,180,366.21a26.73,26.73,0,0,1,10.35-11.33,30.48,30.48,0,0,1,15.93-4q14,0,22,8.57M198,368.86c-1.84,3.1-2.76,7.92-2.76,14.43q0,10,2.7,14.61a9.77,9.77,0,0,0,16.62-.06q2.76-4.65,2.76-14.43,0-10-2.7-14.61a9.77,9.77,0,0,0-16.62.06" transform="translate(-50.06 -147.34)"/><path class="cls-1" d="M183.07,221.28a19.71,19.71,0,0,1-8.26-.18,36.68,36.68,0,0,1,1.45,4.45h59.41A93.53,93.53,0,0,0,232,211c-2.17,1.68-6.62,3.31-11.9,4.18-7.73,1.27-14.3.43-14.68-1.88s5.58-5.22,13.31-6.49a32.14,32.14,0,0,1,11.67-.11,94.37,94.37,0,0,0-21.28-32.11c1.47,1.83-1,6.28-5.61,9.94s-9.45,5.15-10.91,3.33,1-6.27,5.61-9.94,9.4-5.14,10.89-3.35A94.46,94.46,0,0,0,180,154.94a18.68,18.68,0,0,1-2,8.55c-2.44,5.31-6.15,8.83-8.28,7.85s-1.86-6.08.58-11.4a19.44,19.44,0,0,1,5-6.88,93.69,93.69,0,0,0-30.14-5.72,20.9,20.9,0,0,1,1.39,7.94c0,6-2,10.87-4.35,10.87s-4.34-4.87-4.34-10.87a21,21,0,0,1,1.36-7.89,93.64,93.64,0,0,0-28.28,5.52,20.56,20.56,0,0,1,4.3,6.32c2.45,5.32,2.71,10.42.58,11.4s-5.83-2.54-8.27-7.85a20.07,20.07,0,0,1-2-7.72A94.55,94.55,0,0,0,78,173.33c2-.78,6.18.76,10.1,3.9,4.56,3.67,7.07,8.12,5.61,9.94s-6.36.34-10.92-3.33c-4.2-3.37-6.67-7.42-5.87-9.46a94.33,94.33,0,0,0-21.17,31.51,33.8,33.8,0,0,1,11.08.24c7.73,1.27,13.69,4.17,13.31,6.49s-6.95,3.15-14.68,1.88c-5-.82-9.21-2.31-11.5-3.89a93.92,93.92,0,0,0-3.86,14.94h59.42a34.88,34.88,0,0,1,1.82-5.36,18.4,18.4,0,0,1-8.89.39c-5.77-1-10.15-3.59-9.77-5.9s5.38-3.42,11.15-2.46c4.51.74,8.15,2.51,9.35,4.35a34.76,34.76,0,0,1,6-7.54c-2.09.63-6.11-.9-9.91-4-4.56-3.66-7.08-8.11-5.61-9.94s6.35-.33,10.92,3.33c4.16,3.34,6.6,7.33,5.89,9.39a34.27,34.27,0,0,1,9.93-6c-2.15-.67-4.91-3.81-6.88-8.08-2.51-5.45-2.78-10.68-.6-11.69s6,2.61,8.5,8.06c2.08,4.53,2.61,8.91,1.48,10.83a34.29,34.29,0,0,1,7.24-1.38c-1.34-1.84-2.26-5.42-2.26-9.53,0-6,1.94-10.87,4.34-10.87s4.35,4.87,4.35,10.87c0,4.05-.9,7.58-2.2,9.45a34,34,0,0,1,8,1.29c-.61-2.2,0-6,1.84-10,2.51-5.45,6.31-9.06,8.49-8.06s1.92,6.24-.59,11.69c-1.69,3.68-4,6.5-5.94,7.66a34.17,34.17,0,0,1,9.64,6.08c-.35-2.14,2-5.88,6-9,4.56-3.67,9.45-5.16,10.91-3.33s-1,6.27-5.61,9.94c-3.62,2.91-7.45,4.44-9.6,4a34.83,34.83,0,0,1,5.28,7c1.48-1.66,4.87-3.19,9-3.87,5.77-.95,10.76.15,11.14,2.46s-4,5-9.76,5.9M91.2,214.79a4.95,4.95,0,1,1-4.08-5.68,4.94,4.94,0,0,1,4.08,5.68h0Zm11.06-20.27a4.94,4.94,0,1,1-.76-7h0a4.94,4.94,0,0,1,.76,7Zm17.91-13.47a4.95,4.95,0,1,1,2.42-6.56,4.95,4.95,0,0,1-2.42,6.56h0m22.33-3.31a5.08,5.08,0,1,1,5.07-5.07h0a5.07,5.07,0,0,1-5.06,5.07Zm29.37,1.58a4.95,4.95,0,1,1-2.43-6.55,5,5,0,0,1,2.43,6.55h0m19,16.67a4.94,4.94,0,1,1,.76-7,4.94,4.94,0,0,1-.76,7Zm7.44,13.83a4.95,4.95,0,1,1-4.08,5.68h0a5,5,0,0,1,4.08-5.68Z" transform="translate(-50.06 -147.34)"/><path class="cls-1" d="M123.19,225.55h39.36a21.37,21.37,0,0,0-39.36,0" transform="translate(-50.06 -147.34)"/><line class="cls-2" x1="242.44" x2="242.44" y2="268.5"/></svg>