<svg id="Capa_1" data-name="Capa 1" xmlns="http://www.w3.org/2000/svg" viewBox="0 0 773.96 322.28"><defs><style>.cls-1{fill:#4e3615;}.cls-2{fill:none;stroke:#4e3615;stroke-miterlimit:10;}</style></defs><path class="cls-1" d="M90.07,290.32q5,4.29,5,12.85,0,12.52-9,17.65T60.68,326H35.32V247.81H57.61q16.61,0,25.36,4.68t8.75,15.28q0,6.87-4.15,11.1a20.88,20.88,0,0,1-10.29,5.7,26.51,26.51,0,0,1,12.79,5.75M54,260.89V279h6.94q11.82,0,11.82-9.47c0-3.16-1.06-5.39-3.18-6.71s-5.5-2-10.12-2Zm18,49.44c2.54-1.46,3.81-4.19,3.81-8.17q0-10.83-13.64-10.83H54v21.2h6.82q7.4,0,11.2-2.2" transform="translate(-28.16 -130.35)"/><path class="cls-1" d="M121.68,237.38a10.27,10.27,0,0,1,0,14.55A10.7,10.7,0,0,1,114,254.8a10.49,10.49,0,0,1-7.62-2.87,10.42,10.42,0,0,1,0-14.55A10.46,10.46,0,0,1,114,234.5a10.66,10.66,0,0,1,7.67,2.88M123.1,326h-18V266.07h18Z" transform="translate(-28.16 -130.35)"/><path class="cls-1" d="M189.51,301.26H152.1c.6,5,2.05,8.57,4.32,10.6s5.42,3,9.44,3a19.61,19.61,0,0,0,7-1.3,36.66,36.66,0,0,0,7.39-4l7.39,9.92a37,37,0,0,1-23.54,8.35q-14.67,0-22.51-8.57t-7.85-23a39.3,39.3,0,0,1,3.3-16.41A26.05,26.05,0,0,1,162,264.16q13.08,0,20.47,8.12t7.39,22.55a51.89,51.89,0,0,1-.34,6.43m-17.28-11.5Q172,276,162.45,276a8.53,8.53,0,0,0-7.22,3.38q-2.56,3.39-3.13,11.17h20.13Z" transform="translate(-28.16 -130.35)"/><path class="cls-1" d="M247.61,268.9q4.44,4.73,4.44,13.3V326h-18V285.24c0-3-.47-5.09-1.42-6.25a5.16,5.16,0,0,0-4.26-1.75q-5.46,0-10.47,7.78V326H200V266.08h15.69l1.25,7.1a27.19,27.19,0,0,1,8.36-6.77,22.14,22.14,0,0,1,10.06-2.25q7.84,0,12.28,4.74" transform="translate(-28.16 -130.35)"/><path class="cls-1" d="M132.71,450.28H110.29l-1.67-37.41q-.69-13.39-.69-23.88,0-8,.41-15.19L93.45,440.2H71.87L56,373.8q.84,12,.84,22.64,0,8-.42,16.7l-1.67,37.14H32.47l7.24-95.67H68.53L83,419.49l13.5-64.88h29Z" transform="translate(-28.16 -130.35)"/><path class="cls-1" d="M167,335l8.63,16.29-32.85,13.11-6.13-11.18Zm1,115.27h-22V377h22Z" transform="translate(-28.16 -130.35)"/><path class="cls-1" d="M243.8,384.91q9.6,10.29,9.6,28.79A45.35,45.35,0,0,1,249,434.2a32.19,32.19,0,0,1-12.53,13.59q-8.15,4.84-19.28,4.84-16.85,0-26.52-10.29T181,413.56a45.19,45.19,0,0,1,4.39-20.5,32.1,32.1,0,0,1,12.53-13.6q8.15-4.83,19.28-4.83,17,0,26.59,10.28m-36.62,11.32q-3.33,5.59-3.34,17.33,0,12,3.27,17.53t10.1,5.52a10.93,10.93,0,0,0,10-5.59q3.35-5.59,3.34-17.32,0-12-3.27-17.54t-10.09-5.52a10.93,10.93,0,0,0-10,5.59" transform="translate(-28.16 -130.35)"/><path class="cls-1" d="M189.15,219.1a24,24,0,0,1-10-.22,40.29,40.29,0,0,1,1.75,5.35h71.92a111.73,111.73,0,0,0-4.49-17.45c-2.63,2-8,4-14.4,5-9.36,1.52-17.32.51-17.77-2.26s6.75-6.26,16.1-7.78c5.69-.93,10.85-.92,14.13-.14a113.36,113.36,0,0,0-25.75-38.54c1.77,2.19-1.27,7.54-6.79,11.93s-11.44,6.19-13.21,4,1.26-7.53,6.79-11.93,11.38-6.17,13.18-4a114.5,114.5,0,0,0-35.2-23.59,22.31,22.31,0,0,1-2.4,10.26c-3,6.38-7.45,10.6-10,9.42s-2.26-7.3.7-13.68a23.15,23.15,0,0,1,6-8.26,114.11,114.11,0,0,0-36.48-6.86,24.89,24.89,0,0,1,1.68,9.53c0,7.2-2.36,13-5.26,13s-5.27-5.84-5.27-13a24.93,24.93,0,0,1,1.66-9.47A113.88,113.88,0,0,0,101.78,137a24.92,24.92,0,0,1,5.2,7.59c3,6.38,3.28,12.51.71,13.68s-7.06-3-10-9.42a24.09,24.09,0,0,1-2.44-9.27,114.51,114.51,0,0,0-33.3,21.94c2.45-.94,7.48.9,12.22,4.68,5.53,4.39,8.56,9.74,6.79,11.93s-7.69.4-13.21-4c-5.09-4-8.07-8.9-7.11-11.35A113.46,113.46,0,0,0,35,200.62a41.55,41.55,0,0,1,13.42.29c9.36,1.53,16.57,5,16.11,7.79S56.1,212.48,46.75,211c-6-1-11.15-2.78-13.92-4.67a112.1,112.1,0,0,0-4.67,17.94h71.92a39.48,39.48,0,0,1,2.21-6.44c-2.5.94-6.45,1.17-10.76.47-7-1.14-12.29-4.32-11.83-7.09s6.5-4.09,13.49-2.95c5.46.89,9.87,3,11.33,5.23a41.39,41.39,0,0,1,7.2-9c-2.52.75-7.39-1.09-12-4.76-5.52-4.39-8.57-9.74-6.79-11.93s7.69-.4,13.21,4c5,4,8,8.79,7.14,11.27a41.71,41.71,0,0,1,12-7.21c-2.6-.8-5.94-4.56-8.32-9.69-3-6.54-3.36-12.83-.72-14s7.24,3.12,10.27,9.67c2.53,5.44,3.17,10.69,1.8,13a41.42,41.42,0,0,1,8.76-1.65c-1.62-2.22-2.74-6.51-2.74-11.45,0-7.2,2.36-13,5.27-13s5.26,5.84,5.26,13c0,4.87-1.09,9.1-2.67,11.34a42.49,42.49,0,0,1,9.7,1.55c-.74-2.63,0-7.22,2.23-11.95,3-6.54,7.64-10.87,10.28-9.67s2.31,7.49-.72,14c-2,4.41-4.81,7.8-7.19,9.19a41.75,41.75,0,0,1,11.67,7.3c-.43-2.57,2.48-7.06,7.24-10.86,5.53-4.39,11.44-6.18,13.22-4s-1.27,7.53-6.79,11.93c-4.39,3.49-9,5.33-11.63,4.84a41.8,41.8,0,0,1,6.39,8.37c1.8-2,5.9-3.83,10.87-4.64,7-1.14,13,.19,13.49,3s-4.83,5.94-11.82,7.08M78,211.31A6,6,0,1,1,73,204.49,6,6,0,0,1,78,211.31ZM91.35,187a6,6,0,0,1-8.42.91,5.89,5.89,0,0,1-.92-8.34,6,6,0,0,1,8.41-.92h0a5.92,5.92,0,0,1,.93,8.35h0ZM113,170.8a6,6,0,0,1-7.94-2.91A5.92,5.92,0,0,1,108,160a6,6,0,0,1,7.94,2.91A5.91,5.91,0,0,1,113,170.8h0m27-4a6.09,6.09,0,1,1,6.14-6.08h0a6.11,6.11,0,0,1-6.14,6.08Zm35.54,1.91a6,6,0,0,1-7.94,2.91,5.92,5.92,0,0,1-2.93-7.88,6,6,0,0,1,7.94-2.9,5.9,5.9,0,0,1,2.93,7.86h0m23.06,20a6,6,0,0,1-8.41-.91,5.91,5.91,0,0,1,.92-8.35,6,6,0,0,1,8.41.91,5.91,5.91,0,0,1-.92,8.35Zm9,16.6a5.94,5.94,0,1,1-4.93,6.82h0a6,6,0,0,1,4.94-6.82Z" transform="translate(-28.16 -130.35)"/><path class="cls-1" d="M116.68,224.23h47.64a25.95,25.95,0,0,0-47.64,0" transform="translate(-28.16 -130.35)"/><path class="cls-1" d="M427,214.87q-3.45,5.07-11.43,7.83l12.1,26.5H414.79l-10.22-24.64h-7.72l-3.5,24.64H381.61l8.7-61.45h18.11q10.95,0,16.5,4t5.56,11.79A19.61,19.61,0,0,1,427,214.87Zm-29,1.25h7.53q6.74,0,9.73-3.61a12.8,12.8,0,0,0,3-8.49c0-2.73-.89-4.7-2.65-5.91s-4.53-1.83-8.29-1.83H400.8Z" transform="translate(-28.16 -130.35)"/><path class="cls-1" d="M467.88,226.43q-8.34,4.09-22.33,5.52.36,9.78,9.24,9.78a18.91,18.91,0,0,0,6.19-1,24.55,24.55,0,0,0,6.18-3.34l4.4,7.12a30.91,30.91,0,0,1-18,6q-9.51,0-14.53-5.2T434,231a38.72,38.72,0,0,1,2.65-14,26.81,26.81,0,0,1,8.43-11.52q5.78-4.62,14.75-4.62a21.38,21.38,0,0,1,8.92,1.69,13,13,0,0,1,5.61,4.53,11.12,11.12,0,0,1,1.88,6.23Q476.22,222.34,467.88,226.43Zm-7.8-5.56c3-1.74,4.48-4.13,4.48-7.15a5,5,0,0,0-1.25-3.34,5.18,5.18,0,0,0-4.13-1.47,10.27,10.27,0,0,0-8.83,4.45,25.73,25.73,0,0,0-4.26,11Q455.59,223.51,460.08,220.87Z" transform="translate(-28.16 -130.35)"/><path class="cls-1" d="M525.37,205.36l-6.19,41.35q-1.71,11.74-7.49,16.9t-16,5.16a31.8,31.8,0,0,1-8.83-1.34,34.51,34.51,0,0,1-8.3-3.56L482.5,256a31,31,0,0,0,6.32,2.71,22.63,22.63,0,0,0,6.59,1,13.67,13.67,0,0,0,8.34-2.44q3.31-2.44,4.31-9.47l.72-5.16a20.75,20.75,0,0,1-5.92,4.8,14.77,14.77,0,0,1-7.09,1.78q-7.26,0-11.3-4.89t-4-13.08a38,38,0,0,1,2.78-14.31A26.71,26.71,0,0,1,492,205.4q6-4.58,15.16-4.58A38.46,38.46,0,0,1,525.37,205.36Zm-26.73,7.11a19.34,19.34,0,0,0-4.84,8.27,34.94,34.94,0,0,0-1.53,10.32c0,3.32.6,5.73,1.8,7.25a5.93,5.93,0,0,0,4.93,2.26,9.25,9.25,0,0,0,5.7-2,26.22,26.22,0,0,0,5.24-5.56l3.59-22.59a15.33,15.33,0,0,0-3.18-1,18.93,18.93,0,0,0-3.37-.27A11.37,11.37,0,0,0,498.64,212.47Z" transform="translate(-28.16 -130.35)"/><path class="cls-1" d="M550.3,202.15l-6.64,47h-11.3l6.64-47Zm-8.52-11.78A5.85,5.85,0,0,1,540,186a7.28,7.28,0,0,1,2.25-5.47,7.66,7.66,0,0,1,5.56-2.18,6.45,6.45,0,0,1,4.66,1.73,6,6,0,0,1,1.79,4.49,7.21,7.21,0,0,1-2.24,5.39,7.66,7.66,0,0,1-5.56,2.17A6.4,6.4,0,0,1,541.78,190.37Z" transform="translate(-28.16 -130.35)"/><path class="cls-1" d="M594.33,206.78l-5.2,6.31a19.32,19.32,0,0,0-11.39-3.82,10.31,10.31,0,0,0-5.7,1.33,4.17,4.17,0,0,0-2,3.65,3.76,3.76,0,0,0,1.88,3.33,36.77,36.77,0,0,0,7.44,3q6.55,2.06,9.69,5.38a12.29,12.29,0,0,1,3.14,8.76,14,14,0,0,1-2.56,8.32,16.36,16.36,0,0,1-7.22,5.56,28,28,0,0,1-10.85,1.95,27.17,27.17,0,0,1-10.72-2,24.17,24.17,0,0,1-7.93-5.25l5.92-6.14a19.45,19.45,0,0,0,13,4.9q4.48,0,6.68-1.83a5.35,5.35,0,0,0,2.2-4.22,5.16,5.16,0,0,0-.85-3.07,7.07,7.07,0,0,0-2.83-2.13,54.88,54.88,0,0,0-6-2.27q-6.54-2.05-9.46-5.2a11.55,11.55,0,0,1-2.91-8.14,12.48,12.48,0,0,1,2.19-7,15.39,15.39,0,0,1,6.51-5.29,26.76,26.76,0,0,1,27,4Z" transform="translate(-28.16 -130.35)"/><path class="cls-1" d="M613.43,235.06q-.18,1.78-.18,2.22a4.32,4.32,0,0,0,.9,3.07,3.84,3.84,0,0,0,2.87.93,14.86,14.86,0,0,0,6.1-1.69l3.23,7.56a22.23,22.23,0,0,1-11.93,3.38q-6,0-9.28-3.15t-3.28-8.94a24.39,24.39,0,0,1,.27-3.47l3.5-24.63h-7.35l1.16-8.19h7.8l3-10.67,9.51-1.07-1.61,11.74H629l-2.42,8.19h-9.69Z" transform="translate(-28.16 -130.35)"/><path class="cls-1" d="M666.61,201.62l-3.32,10.94a16.23,16.23,0,0,0-3.94-.53,9,9,0,0,0-7.18,3.55A34.45,34.45,0,0,0,646.79,226l-3.31,23.21h-11.3l6.63-47h9.78l-.36,9.16a21.77,21.77,0,0,1,6.1-7.78,12.29,12.29,0,0,1,7.53-2.62A16.94,16.94,0,0,1,666.61,201.62Z" transform="translate(-28.16 -130.35)"/><path class="cls-1" d="M669.26,245.29q-5-5.25-5-14.59a39,39,0,0,1,2.56-13.78,26.34,26.34,0,0,1,8.29-11.48q5.75-4.62,14.71-4.62,9.15,0,14.12,5.29t5,14.45a39.9,39.9,0,0,1-2.51,13.79,26.19,26.19,0,0,1-8.25,11.51q-5.74,4.68-14.8,4.67T669.26,245.29Zm22.64-7.07a21.43,21.43,0,0,0,4.13-8.85,46,46,0,0,0,1.16-10.05q0-9.87-8-9.87a9.69,9.69,0,0,0-7.89,3.6,21.24,21.24,0,0,0-4.17,8.67,42.27,42.27,0,0,0-1.21,9.87q0,10.32,8.07,10.32A9.59,9.59,0,0,0,691.9,238.22Z" transform="translate(-28.16 -130.35)"/><path class="cls-1" d="M429.5,277.13l-9.33,65.81h-9.95l.09-7.21q-5.65,8.53-14.26,8.54-7.28,0-11.12-5t-3.86-13.83a44.07,44.07,0,0,1,2.38-14.06,28.86,28.86,0,0,1,7.44-12,17.64,17.64,0,0,1,12.69-4.84A14.29,14.29,0,0,1,415,299.71L418.38,276Zm-31.17,29.61a22.42,22.42,0,0,0-4.17,8.85,43.14,43.14,0,0,0-1.25,10.18q0,9.87,6.45,9.87a9,9,0,0,0,6.19-2.49,34.68,34.68,0,0,0,5.74-7.11l2.6-18.5a11.62,11.62,0,0,0-3.54-3.33,8.67,8.67,0,0,0-4.44-1.12A9.25,9.25,0,0,0,398.33,306.74Z" transform="translate(-28.16 -130.35)"/><path class="cls-1" d="M467.61,320.17q-8.34,4.09-22.33,5.51.36,9.79,9.24,9.78a18.65,18.65,0,0,0,6.19-1,24.49,24.49,0,0,0,6.18-3.33l4.4,7.11a30.92,30.92,0,0,1-18,6q-9.51,0-14.53-5.2t-5-14.37a38.63,38.63,0,0,1,2.65-14,26.69,26.69,0,0,1,8.43-11.52q5.77-4.62,14.75-4.62a21.38,21.38,0,0,1,8.92,1.69,12.85,12.85,0,0,1,5.61,4.53A11.1,11.1,0,0,1,476,307Q476,316.07,467.61,320.17Zm-7.8-5.56q4.49-2.62,4.48-7.16a5,5,0,0,0-1.25-3.33,5.16,5.16,0,0,0-4.13-1.47,10.25,10.25,0,0,0-8.83,4.45,25.87,25.87,0,0,0-4.26,11Q455.33,317.23,459.81,314.61Z" transform="translate(-28.16 -130.35)"/><path class="cls-1" d="M506.76,341.2q-3-3.06-3-8.49a20.75,20.75,0,0,1,.27-3.29l4.75-33.53h11.3L515.5,328c-.12,1.18-.18,2-.18,2.48a5.2,5.2,0,0,0,1,3.65,4.13,4.13,0,0,0,3.1,1.07,8.9,8.9,0,0,0,6-2.49,35.42,35.42,0,0,0,5.61-6.58l4.3-30.24h11.3L540,342.94h-9.77l.45-7.74a27.4,27.4,0,0,1-7.09,6.71,15.26,15.26,0,0,1-8.25,2.36Q509.76,344.27,506.76,341.2Z" transform="translate(-28.16 -130.35)"/><path class="cls-1" d="M590.65,300.51l-5.2,6.32A19.34,19.34,0,0,0,574.06,303a10.25,10.25,0,0,0-5.69,1.34,4.14,4.14,0,0,0-2,3.64,3.76,3.76,0,0,0,1.88,3.34,37.29,37.29,0,0,0,7.45,3q6.54,2,9.68,5.38a12.26,12.26,0,0,1,3.14,8.76,14,14,0,0,1-2.55,8.31,16.33,16.33,0,0,1-7.22,5.56,27.81,27.81,0,0,1-10.86,2,26.91,26.91,0,0,1-10.71-2,24.25,24.25,0,0,1-7.94-5.24l5.92-6.14a19.49,19.49,0,0,0,13,4.89c3,0,5.22-.6,6.68-1.82a5.37,5.37,0,0,0,2.2-4.23,5.15,5.15,0,0,0-.85-3.06,7.08,7.08,0,0,0-2.83-2.14,56.7,56.7,0,0,0-6-2.27q-6.55-2-9.46-5.2a11.48,11.48,0,0,1-2.92-8.14,12.36,12.36,0,0,1,2.2-7,15.29,15.29,0,0,1,6.5-5.29,26.78,26.78,0,0,1,27,3.95Z" transform="translate(-28.16 -130.35)"/><path class="cls-1" d="M599.75,341.2q-3-3.06-3-8.49a20.75,20.75,0,0,1,.27-3.29l4.75-33.53h11.3L608.5,328c-.12,1.18-.18,2-.18,2.48a5.15,5.15,0,0,0,1,3.65,4.12,4.12,0,0,0,3.09,1.07,8.91,8.91,0,0,0,6-2.49,35,35,0,0,0,5.6-6.58l4.31-30.24h11.3L633,342.94h-9.77l.45-7.74a27.4,27.4,0,0,1-7.09,6.71,15.26,15.26,0,0,1-8.25,2.36C604.61,344.27,601.76,343.25,599.75,341.2Z" transform="translate(-28.16 -130.35)"/><path class="cls-1" d="M690.92,299.09l-4.58,31.57c-.12,1.07-.18,1.75-.18,2a3.66,3.66,0,0,0,2.69,3.91l-3.23,7.47q-8.34-.88-9.77-7.82-5.93,8-14.17,8-7.26,0-11.26-5t-4-13.43a40.49,40.49,0,0,1,2.74-14.5,28,28,0,0,1,8.65-12q5.92-4.8,15-4.8A39.13,39.13,0,0,1,690.92,299.09Zm-26.46,7.34a21.29,21.29,0,0,0-4.71,8.8,39.18,39.18,0,0,0-1.48,10.63q0,9.78,6.55,9.78a9,9,0,0,0,5.56-1.91,27.32,27.32,0,0,0,5.2-5.56l3.41-24a15.87,15.87,0,0,0-6.37-1.24A10.6,10.6,0,0,0,664.46,306.43Z" transform="translate(-28.16 -130.35)"/><path class="cls-1" d="M732.26,295.36l-3.32,10.93a16.75,16.75,0,0,0-4-.53,9,9,0,0,0-7.17,3.56,34.27,34.27,0,0,0-5.38,10.4l-3.32,23.22h-11.3l6.64-47.05h9.77l-.36,9.16a21.79,21.79,0,0,1,6.1-7.78,12.32,12.32,0,0,1,7.54-2.62A16.64,16.64,0,0,1,732.26,295.36Z" transform="translate(-28.16 -130.35)"/><path class="cls-1" d="M750.46,295.89l-6.63,47.05h-11.3l6.63-47.05Zm-8.52-11.78a5.9,5.9,0,0,1-1.79-4.41,7.34,7.34,0,0,1,2.24-5.47,7.68,7.68,0,0,1,5.56-2.17,6.42,6.42,0,0,1,4.67,1.73,6,6,0,0,1,1.79,4.49,7.21,7.21,0,0,1-2.24,5.38,7.69,7.69,0,0,1-5.56,2.18A6.46,6.46,0,0,1,741.94,284.11Z" transform="translate(-28.16 -130.35)"/><path class="cls-1" d="M762.44,339q-5-5.25-5-14.58A39.27,39.27,0,0,1,760,310.65a26.33,26.33,0,0,1,8.3-11.47q5.75-4.62,14.71-4.62,9.15,0,14.12,5.29t5,14.45a39.85,39.85,0,0,1-2.51,13.78,26.33,26.33,0,0,1-8.25,11.52q-5.75,4.66-14.8,4.67T762.44,339ZM785.08,332a21.56,21.56,0,0,0,4.13-8.85,45.82,45.82,0,0,0,1.16-10.05q0-9.87-8-9.87a9.69,9.69,0,0,0-7.89,3.6,21.22,21.22,0,0,0-4.17,8.68,42.21,42.21,0,0,0-1.21,9.87q0,10.32,8.07,10.31A9.59,9.59,0,0,0,785.08,332Z" transform="translate(-28.16 -130.35)"/><path class="cls-1" d="M397.67,367.78a10.3,10.3,0,0,1,3.29,2.1L398.8,372a9.22,9.22,0,0,0-2.47-1.39,7.75,7.75,0,0,0-2.62-.44,7.37,7.37,0,0,0-5.52,2.21,12.68,12.68,0,0,0-3.08,5.51,24.23,24.23,0,0,0-.95,6.71q0,3.95,1.65,5.79a5.66,5.66,0,0,0,4.45,1.85,8,8,0,0,0,3.21-.62,18.48,18.48,0,0,0,3-1.73l1.69,2.55a12.4,12.4,0,0,1-8.14,3,9.25,9.25,0,0,1-7.18-2.9c-1.76-1.94-2.65-4.68-2.65-8.23a23.43,23.43,0,0,1,1.43-7.95,15.57,15.57,0,0,1,4.43-6.62,10.9,10.9,0,0,1,7.5-2.65A11,11,0,0,1,397.67,367.78Z" transform="translate(-28.16 -130.35)"/><path class="cls-1" d="M415.8,373.78l-1.09,3.54a6.89,6.89,0,0,0-1.72-.2,4.41,4.41,0,0,0-3.43,1.69,15.56,15.56,0,0,0-2.62,5l-1.61,11.09h-3.65l3-20.95h3.13l-.24,4.29a9.72,9.72,0,0,1,2.74-3.58,5.58,5.58,0,0,1,3.39-1.19A9.18,9.18,0,0,1,415.8,373.78Z" transform="translate(-28.16 -130.35)"/><path class="cls-1" d="M429.55,384.63a30.91,30.91,0,0,1-10.11,2.51c.08,3.47,1.61,5.21,4.57,5.21a8.53,8.53,0,0,0,2.85-.48,12.28,12.28,0,0,0,2.81-1.47l1.56,2.46a12.8,12.8,0,0,1-7.58,2.55,7.75,7.75,0,0,1-5.95-2.25,8.81,8.81,0,0,1-2.1-6.26,18.21,18.21,0,0,1,1.1-6.22,11.58,11.58,0,0,1,3.55-5.13,9.32,9.32,0,0,1,6.21-2.05,7.21,7.21,0,0,1,5,1.55,4.89,4.89,0,0,1,1.74,3.78A6,6,0,0,1,429.55,384.63Zm-2.59-2a3.87,3.87,0,0,0,2.35-3.7,2.6,2.6,0,0,0-.69-1.75,2.75,2.75,0,0,0-2.2-.8,5.4,5.4,0,0,0-4.69,2.31,12.38,12.38,0,0,0-2.09,5.65A23.66,23.66,0,0,0,427,382.65Z" transform="translate(-28.16 -130.35)"/><path class="cls-1" d="M451.05,373.94a18.26,18.26,0,0,1,3.67,1.35l-2.16,14.87a6.87,6.87,0,0,0-.08.87,2,2,0,0,0,.3,1.16,2.08,2.08,0,0,0,1.06.71l-1,2.51a4.65,4.65,0,0,1-2.61-1,3.79,3.79,0,0,1-1.12-2.46,10.2,10.2,0,0,1-2.89,2.56,6.58,6.58,0,0,1-3.4.94,6,6,0,0,1-5-2.19,9.06,9.06,0,0,1-1.76-5.84,18.1,18.1,0,0,1,1.18-6.36,12.84,12.84,0,0,1,3.71-5.35,9.44,9.44,0,0,1,6.38-2.17A15.64,15.64,0,0,1,451.05,373.94Zm-7.85,4.15a10.23,10.23,0,0,0-2.45,4.22,17.17,17.17,0,0,0-.78,5.11,6.49,6.49,0,0,0,.92,3.83,3.09,3.09,0,0,0,2.65,1.26,4.73,4.73,0,0,0,2.94-1,14.52,14.52,0,0,0,2.71-2.86l1.64-11.57a8.66,8.66,0,0,0-1.62-.52,9.7,9.7,0,0,0-1.82-.16A5.65,5.65,0,0,0,443.2,378.09Z" transform="translate(-28.16 -130.35)"/><path class="cls-1" d="M473.25,373.78l-1.09,3.54a6.94,6.94,0,0,0-1.72-.2,4.41,4.41,0,0,0-3.43,1.69,15.75,15.75,0,0,0-2.63,5l-1.6,11.09h-3.65l3-20.95h3.13l-.24,4.29a9.72,9.72,0,0,1,2.74-3.58,5.58,5.58,0,0,1,3.39-1.19A9.18,9.18,0,0,1,473.25,373.78Z" transform="translate(-28.16 -130.35)"/><path class="cls-1" d="M486.69,394a5.12,5.12,0,0,1-1.38-3.8,8.42,8.42,0,0,1,.12-1.39L487.56,374h3.64l-2.08,14.71A8,8,0,0,0,489,390a2.72,2.72,0,0,0,.58,1.95,2.33,2.33,0,0,0,1.75.59,5,5,0,0,0,3.34-1.35,19.14,19.14,0,0,0,3.07-3.57L499.66,374h3.65l-3,20.95h-3.13l.28-3.86a12.54,12.54,0,0,1-3.23,3.24,6.68,6.68,0,0,1-3.75,1.1A5.23,5.23,0,0,1,486.69,394Z" transform="translate(-28.16 -130.35)"/><path class="cls-1" d="M524.66,374.91a5.43,5.43,0,0,1,1.34,3.88,9.71,9.71,0,0,1-.12,1.43l-2.08,14.71h-3.65l2.08-14.63c.06-.58.08-1,.08-1.15a2.74,2.74,0,0,0-.6-2,2.32,2.32,0,0,0-1.72-.6,5.16,5.16,0,0,0-3.55,1.63,18.2,18.2,0,0,0-3.15,4.18l-1.76,12.56h-3.65l3-20.95H514l-.32,4.09a13.31,13.31,0,0,1,3.36-3.38,7.11,7.11,0,0,1,4-1.19A4.84,4.84,0,0,1,524.66,374.91Z" transform="translate(-28.16 -130.35)"/><path class="cls-1" d="M545.87,373.94a18.49,18.49,0,0,1,3.67,1.35l-2.17,14.87c0,.42-.08.72-.08.87a2,2,0,0,0,.3,1.16,2.12,2.12,0,0,0,1.06.71l-1,2.51a4.65,4.65,0,0,1-2.61-1,3.84,3.84,0,0,1-1.12-2.46,10.17,10.17,0,0,1-2.88,2.56,6.62,6.62,0,0,1-3.41.94,6,6,0,0,1-5-2.19,9,9,0,0,1-1.77-5.84A18.11,18.11,0,0,1,532,381a12.73,12.73,0,0,1,3.7-5.35,9.44,9.44,0,0,1,6.38-2.17A15.79,15.79,0,0,1,545.87,373.94ZM538,378.09a10.23,10.23,0,0,0-2.45,4.22,17.17,17.17,0,0,0-.78,5.11,6.49,6.49,0,0,0,.92,3.83,3.09,3.09,0,0,0,2.65,1.26,4.76,4.76,0,0,0,2.95-1,14.22,14.22,0,0,0,2.7-2.86l1.65-11.57a9,9,0,0,0-1.63-.52,9.7,9.7,0,0,0-1.82-.16A5.65,5.65,0,0,0,538,378.09Z" transform="translate(-28.16 -130.35)"/><path class="cls-1" d="M581.11,374.91a5.43,5.43,0,0,1,1.34,3.88,9.71,9.71,0,0,1-.12,1.43l-2.09,14.71H576.6l2.08-14.63c.05-.58.08-1,.08-1.15a2.74,2.74,0,0,0-.6-2,2.34,2.34,0,0,0-1.72-.6,5.14,5.14,0,0,0-3.55,1.63,17.92,17.92,0,0,0-3.15,4.18L568,394.93h-3.65l3-20.95h3.13l-.32,4.09a13.34,13.34,0,0,1,3.37-3.38,7.07,7.07,0,0,1,4-1.19A4.84,4.84,0,0,1,581.11,374.91Z" transform="translate(-28.16 -130.35)"/><path class="cls-1" d="M589.48,394a5.12,5.12,0,0,1-1.38-3.8,8.42,8.42,0,0,1,.12-1.39L590.35,374H594l-2.08,14.71a8,8,0,0,0-.12,1.31,2.72,2.72,0,0,0,.58,1.95,2.33,2.33,0,0,0,1.75.59,5,5,0,0,0,3.34-1.35,19.14,19.14,0,0,0,3.07-3.57L602.45,374h3.65l-3,20.95H600l.28-3.86a12.54,12.54,0,0,1-3.23,3.24,6.68,6.68,0,0,1-3.75,1.1A5.23,5.23,0,0,1,589.48,394Z" transform="translate(-28.16 -130.35)"/><path class="cls-1" d="M624.42,384.63a30.77,30.77,0,0,1-10.1,2.51q.12,5.21,4.57,5.21a8.53,8.53,0,0,0,2.85-.48,12,12,0,0,0,2.8-1.47l1.57,2.46a12.83,12.83,0,0,1-7.58,2.55,7.73,7.73,0,0,1-5.95-2.25,8.77,8.77,0,0,1-2.11-6.26,18.46,18.46,0,0,1,1.1-6.22,11.75,11.75,0,0,1,3.55-5.13,9.33,9.33,0,0,1,6.22-2.05,7.23,7.23,0,0,1,4.95,1.55,4.89,4.89,0,0,1,1.74,3.78A6,6,0,0,1,624.42,384.63Zm-2.58-2a3.86,3.86,0,0,0,2.34-3.7,2.59,2.59,0,0,0-.68-1.75,2.75,2.75,0,0,0-2.2-.8,5.39,5.39,0,0,0-4.69,2.31,12.27,12.27,0,0,0-2.09,5.65A23.82,23.82,0,0,0,621.84,382.65Z" transform="translate(-28.16 -130.35)"/><path class="cls-1" d="M649.56,374l-10.1,20.95h-4.37L630.84,374h4l2.88,17.65L645.55,374Z" transform="translate(-28.16 -130.35)"/><path class="cls-1" d="M665.29,373.94a18.26,18.26,0,0,1,3.67,1.35l-2.16,14.87a6.87,6.87,0,0,0-.08.87,2,2,0,0,0,.3,1.16,2.08,2.08,0,0,0,1.06.71l-1,2.51a4.65,4.65,0,0,1-2.61-1,3.79,3.79,0,0,1-1.12-2.46,10.07,10.07,0,0,1-2.89,2.56,6.58,6.58,0,0,1-3.4.94,6,6,0,0,1-5-2.19,9.06,9.06,0,0,1-1.76-5.84,18.1,18.1,0,0,1,1.18-6.36,12.84,12.84,0,0,1,3.71-5.35,9.44,9.44,0,0,1,6.38-2.17A15.64,15.64,0,0,1,665.29,373.94Zm-7.85,4.15a10.23,10.23,0,0,0-2.45,4.22,17.17,17.17,0,0,0-.78,5.11,6.49,6.49,0,0,0,.92,3.83,3.09,3.09,0,0,0,2.65,1.26,4.73,4.73,0,0,0,2.94-1,14.24,14.24,0,0,0,2.71-2.86l1.64-11.57a8.66,8.66,0,0,0-1.62-.52,9.7,9.7,0,0,0-1.82-.16A5.65,5.65,0,0,0,657.44,378.09Z" transform="translate(-28.16 -130.35)"/><path class="cls-1" d="M700.39,375.81l-2,2.26a6.4,6.4,0,0,0-1.93-1.19,6.23,6.23,0,0,0-2.2-.36,5.26,5.26,0,0,0-4,1.65,9.48,9.48,0,0,0-2.2,4.08,18.59,18.59,0,0,0-.67,4.89c0,3.44,1.43,5.17,4.29,5.17a7.24,7.24,0,0,0,2.43-.4,14.41,14.41,0,0,0,2.46-1.23l1.49,2.54a11.24,11.24,0,0,1-6.62,2.19,7.52,7.52,0,0,1-5.83-2.25,9,9,0,0,1-2.06-6.3,17.68,17.68,0,0,1,1.12-6.1,12.21,12.21,0,0,1,3.53-5.17,8.9,8.9,0,0,1,6-2.09A8.57,8.57,0,0,1,700.39,375.81Z" transform="translate(-28.16 -130.35)"/><path class="cls-1" d="M704.22,394a5.12,5.12,0,0,1-1.38-3.8,8.42,8.42,0,0,1,.12-1.39L705.08,374h3.65l-2.08,14.71a8,8,0,0,0-.12,1.31,2.72,2.72,0,0,0,.58,1.95,2.32,2.32,0,0,0,1.74.59,5,5,0,0,0,3.35-1.35,19.14,19.14,0,0,0,3.07-3.57L717.19,374h3.65l-3,20.95h-3.12l.28-3.86a12.7,12.7,0,0,1-3.23,3.24,6.68,6.68,0,0,1-3.75,1.1A5.22,5.22,0,0,1,704.22,394Z" transform="translate(-28.16 -130.35)"/><path class="cls-1" d="M739.16,384.63a30.84,30.84,0,0,1-10.1,2.51q.12,5.21,4.57,5.21a8.43,8.43,0,0,0,2.84-.48,12.08,12.08,0,0,0,2.81-1.47l1.56,2.46a12.8,12.8,0,0,1-7.57,2.55,7.77,7.77,0,0,1-6-2.25,8.81,8.81,0,0,1-2.1-6.26,18.46,18.46,0,0,1,1.1-6.22,11.75,11.75,0,0,1,3.55-5.13,9.32,9.32,0,0,1,6.21-2.05,7.21,7.21,0,0,1,4.95,1.55,4.87,4.87,0,0,1,1.75,3.78A6,6,0,0,1,739.16,384.63Zm-2.59-2a3.85,3.85,0,0,0,2.35-3.7,2.64,2.64,0,0,0-.68-1.75,2.77,2.77,0,0,0-2.21-.8,5.42,5.42,0,0,0-4.69,2.31,12.38,12.38,0,0,0-2.08,5.65A23.66,23.66,0,0,0,736.57,382.65Z" transform="translate(-28.16 -130.35)"/><path class="cls-1" d="M762.91,374.91a5.39,5.39,0,0,1,1.35,3.88,9.71,9.71,0,0,1-.12,1.43l-2.09,14.71H758.4l2.09-14.63c0-.58.08-1,.08-1.15a2.74,2.74,0,0,0-.6-2,2.35,2.35,0,0,0-1.73-.6,5.12,5.12,0,0,0-3.54,1.63,17.92,17.92,0,0,0-3.15,4.18l-1.77,12.56h-3.64l3-20.95h3.13l-.32,4.09a13.18,13.18,0,0,1,3.37-3.38,7.07,7.07,0,0,1,4-1.19A4.81,4.81,0,0,1,762.91,374.91Z" transform="translate(-28.16 -130.35)"/><path class="cls-1" d="M774,389.4c-.06.53-.08.88-.08,1a1.65,1.65,0,0,0,1.88,1.91,5,5,0,0,0,1.43-.22,14.63,14.63,0,0,0,1.62-.66l1.2,2.55a8.7,8.7,0,0,1-4.69,1.39,5.29,5.29,0,0,1-3.77-1.25,4.69,4.69,0,0,1-1.32-3.56,7.89,7.89,0,0,1,.08-1.27l1.76-12.53h-3.64l.4-2.82h3.8l1.33-4.85,2.88-.32L776.2,374h5l-.8,2.82H775.8Z" transform="translate(-28.16 -130.35)"/><path class="cls-1" d="M797.55,373.94a18.49,18.49,0,0,1,3.67,1.35l-2.17,14.87c0,.42-.08.72-.08.87a2,2,0,0,0,.31,1.16,2.08,2.08,0,0,0,1.06.71l-1,2.51a4.59,4.59,0,0,1-2.61-1,3.74,3.74,0,0,1-1.12-2.46,10.2,10.2,0,0,1-2.89,2.56,6.59,6.59,0,0,1-3.41.94,6,6,0,0,1-5-2.19,9.06,9.06,0,0,1-1.76-5.84,18.1,18.1,0,0,1,1.18-6.36,12.84,12.84,0,0,1,3.71-5.35,9.41,9.41,0,0,1,6.37-2.17A15.79,15.79,0,0,1,797.55,373.94Zm-7.86,4.15a10.22,10.22,0,0,0-2.44,4.22,17.17,17.17,0,0,0-.78,5.11,6.42,6.42,0,0,0,.92,3.83,3.07,3.07,0,0,0,2.65,1.26,4.75,4.75,0,0,0,2.94-1,14.52,14.52,0,0,0,2.71-2.86l1.64-11.57a8.66,8.66,0,0,0-1.62-.52,9.73,9.73,0,0,0-1.83-.16A5.67,5.67,0,0,0,789.69,378.09Z" transform="translate(-28.16 -130.35)"/><line class="cls-2" x1="293.44" x2="293.44" y2="322.28"/></svg>